/* XPM */
static char *_052d5a5002e4914a138812ec73f16dcL57pqKs2hZMXp8u8[] = {
/* columns rows colors chars-per-pixel */
"11 4 2 1 ",
"  c #030303",
". c white",
/* pixels */
"           ",
" ........  ",
" ........  ",
"           "
};
