/* XPM */
static char *b47d2dd145174874c265cf1e9a3e066bPuAFx29DMWhDjJG8[] = {
/* columns rows colors chars-per-pixel */
"5 10 2 1 ",
"  c #030303",
". c white",
/* pixels */
"     ",
" ..  ",
" ..  ",
" ..  ",
" ..  ",
" ..  ",
" ..  ",
" ..  ",
" ..  ",
"     "
};
