/* XPM */
static char *d9f9146454d84c15aa0a5f7575be19aev6Wd8HW7ghNQuWCv[] = {
/* columns rows colors chars-per-pixel */
"256 16 212 2 ",
"   c black",
".  c black",
"X  c black",
"o  c black",
"O  c black",
"+  c black",
"@  c black",
"#  c black",
"$  c black",
"%  c black",
"&  c black",
"*  c black",
"=  c black",
"-  c black",
";  c black",
":  c black",
">  c black",
",  c black",
"<  c black",
"1  c black",
"2  c black",
"3  c black",
"4  c black",
"5  c black",
"6  c black",
"7  c black",
"8  c black",
"9  c black",
"0  c black",
"q  c black",
"w  c #180000",
"e  c #180000",
"r  c #290000",
"t  c #290000",
"y  c #210000",
"u  c #080000",
"i  c #100000",
"p  c black",
"a  c #080000",
"s  c #080000",
"d  c black",
"f  c black",
"g  c #311C13",
"h  c None",
"j  c #391810",
"k  c black",
"l  c #4F2921",
"z  c #5A2E1B",
"x  c #26100A",
"c  c #4F2921",
"v  c #130805",
"b  c black",
"n  c black",
"m  c #2C140D",
"M  c #843C29",
"N  c #2C120A",
"B  c #160905",
"V  c #160A05",
"C  c black",
"Z  c #58281B",
"A  c #211008",
"S  c black",
"D  c #2C140D",
"F  c #080000",
"G  c #000400",
"H  c #080400",
"J  c #100400",
"K  c black",
"L  c black",
"P  c black",
"I  c black",
"U  c black",
"Y  c black",
"T  c #865342",
"R  c #683F39",
"E  c #6D493F",
"W  c #65382E",
"Q  c #5A2923",
"!  c #603B31",
"~  c #55231B",
"^  c #5D2B21",
"/  c #5D2418",
"(  c #602B1B",
")  c #60281B",
"_  c #653826",
"`  c #653320",
"'  c #603020",
"]  c #653620",
"[  c #5A251B",
"{  c #653E26",
"}  c #5A2B1B",
"|  c #683620",
" . c #6A2E1B",
".. c #6E281B",
"X. c #6B3021",
"o. c #5D281B",
"O. c #572016",
"+. c #65251B",
"@. c #6B2418",
"#. c #542B1B",
"$. c #4A2516",
"%. c #4A251B",
"&. c #441D10",
"*. c #441810",
"=. c #442016",
"-. c #441A10",
";. c #3C2016",
":. c #422216",
">. c #422016",
",. c #341910",
"<. c #BD7D63",
"1. c #E7BEAD",
"2. c #A77E73",
"3. c #F7DBBD",
"4. c #B2927E",
"5. c #AA715D",
"6. c #EFAA8C",
"7. c #BD7D6B",
"8. c #DEB294",
"9. c #9F7662",
"0. c #AD6952",
"q. c #995642",
"w. c #914831",
"e. c #8C4129",
"r. c #8C3C29",
"t. c #945539",
"y. c #944D31",
"u. c #8C4931",
"i. c #945131",
"p. c #843829",
"a. c #945D39",
"s. c #844129",
"d. c #843C29",
"f. c #7B3021",
"g. c #6B3821",
"h. c #6B3829",
"j. c #632C18",
"k. c #632418",
"l. c #633021",
"z. c #632818",
"x. c #5A3021",
"c. c #633421",
"v. c #603320",
"b. c #8B5347",
"n. c #D68263",
"m. c #C66D4A",
"M. c #9C4529",
"N. c #943829",
"B. c #7B4129",
"V. c #9C4D31",
"C. c #6A3320",
"Z. c #631C10",
"A. c #5A2018",
"S. c #581A10",
"D. c #581510",
"F. c #4F1810",
"G. c #4F140D",
"H. c #52100A",
"J. c #521810",
"K. c #4A110B",
"L. c #5A1810",
"P. c #5A1C10",
"I. c #541A10",
"U. c #5A1410",
"Y. c #522216",
"T. c #521008",
"R. c #521410",
"E. c #5A1008",
"W. c #422010",
"Q. c #421C10",
"!. c #391810",
"~. c #421810",
"^. c #2C120A",
"/. c #311810",
"(. c #361810",
"). c #31150A",
"_. c #36110A",
"`. c #36100A",
"'. c #3E100A",
"]. c #230805",
"[. c #230905",
"{. c #3E120A",
"}. c #2E0D08",
"|. c #3C0D0A",
" X c #29110B",
".X c #230A05",
"XX c #3E110A",
"oX c #3C100A",
"OX c #280605",
"+X c #390A05",
"@X c #3C0E0A",
"#X c #260905",
"$X c #390D0A",
"%X c #200605",
"&X c #3C0A05",
"*X c #360E0A",
"=X c #1B0905",
"-X c #290C08",
";X c #160A05",
":X c #160905",
">X c #130805",
",X c #130A05",
"<X c #1B0A05",
"1X c #150A05",
"2X c #1B0C08",
"3X c #180A05",
"4X c #391910",
"5X c #4A1810",
"6X c #44120A",
"7X c #3E1510",
"8X c #410D0A",
"9X c white",
/* pixels */
"                                                                                                                                                . . . X o o o o O O O O O O O O O O O O O O O O O O O O O O O O O O O O O O O O O O O O O O O O O O O O O O O O O O O O O O O O O O O O O O O O O O O O O O O O O O O O O O O O O O O O O O O O O O O O O O O O O O O O O O O O O O O O O O O O O O O O O O O O O O O O O O O O O O O O O O O O O O O O O O O O O O O O O O O O O O O O O O O O O O O O O O O O o o o o . . . . ",
"                                                                                                                                              . . X + @ # # $ $ % % % % % % % % % % % % % % % % % % % % % % % % % % % % % % % % % % % % % % % % % % % % % % % % % % % % % % % % % % % % % % % % % % % % % % % % % % % % % % % % % % % % % % % % % % % % % % % % % % % % % % % % % % % % % % % % % % % % % % % % % % % % % % % % % % % % % % % % % % % % % % % % % % % % % % % % % % % % % % % % % % % % % % % % & & * * = o o . ",
"                                                                                                                                              . X + @ - $ ; : : > > > > > > > > > > > > > > > > > > > > > > > > > > > > > > > > > > > > > > > > > > > > > > > > > > > > > > > > > > > > > > > > > > > > > > > > > > > > > > > > > > > > > > > > > > > > > > > > > > > > > > > > > > > > > > > > > > > > > > > > > > > > > > > > > > > > > > > > > > > > > > > > > > > > > > > > > > > > > > > > > > > > > > > > , , < < & % = o ",
"                                                                                                                                              1 X @ - 2 : 3 4 5 6 6 6 6 6 6 6 6 6 6 6 6 6 6 6 6 6 6 6 6 6 6 6 6 6 6 6 6 6 6 6 6 6 6 6 6 6 6 6 6 6 6 6 6 6 6 6 6 6 6 6 6 6 6 6 6 6 6 6 6 6 6 6 6 6 6 6 6 6 6 6 6 6 6 6 6 6 6 6 6 6 6 6 6 6 6 6 6 6 6 6 6 6 6 6 6 6 6 6 6 6 6 6 6 6 6 6 6 6 6 6 6 6 6 6 6 6 6 6 6 6 6 6 6 6 6 6 6 6 6 6 6 6 6 6 6 6 6 6 6 6 6 6 6 6 6 6 6 6 6 6 6 6 6 6 6 6 6 6 6 6 6 6 6 6 6 6 6 7 7 8 9 , 0 % = ",
"                                                                                                                                              1 q q ; ; w w e e r r r r t t t t y y y y t t t t y y y y t t t t y y y y t t t t u u u u u u u u u u u u u u u u u u u u u u u u u u u u u u u u u u u u u u u u i i i i u u u u p p p p p p p p i i i i i i i i u u u u p p p p i i i i u u u u u u u u u u u u u u u u u u u u u u u u u u u u u u u u p p p p p p p p p p p p p p p p p p p p u u u u p p p p a s s s d f f f ",
"                                                                                                                                              1 q q ; g T T T T R R R R E E E E W W W W Q Q Q Q ! ! ! ! ~ ~ ~ ~ ^ ^ ^ ^ / / / / ( ( ( ( ( ( ( ( ) ) ) ) _ _ _ _ ` ` ` ` ' ' ' ' ] ] ] ] [ [ [ [ { { { { } } } } | | | |  . . . .........X.X.X.X.o.o.o.o.O.O.O.O.+.+.+.+.@.@.@.@.o.o.o.o.#.#.#.#.$.$.$.$.%.%.%.%.&.&.&.&.*.*.*.*.=.=.=.=.&.&.&.&.-.-.-.-.;.;.;.;.:.:.:.:.>.>.>.>.:.:.:.:.;.;.;.;.,.,.,.,.:.:.:.:.h h h h j d f f ",
"                                                                                                                                              1 q q ; k l <.<.<.1.2.2.1.3.3.3.4.5.6.5.5.7.7.7.7.8.8.9.9.0.0.0.0.q.q.q.q.w.w.w./ e.e.e.e.e.e.e.e.r.r.r.r._ t.t._ y.y.` ` u.u.u.u.i.i.] ] p.p.p.p.a.a.a.{ s.s.s.s.| i.| |  . . . .........X.X.X.X.d.o.o.o.f.f.f.f.+.+.+.+.@.@.@.@.o.o.o.o.#.#.#.#.g.$.g.g.h.h.h.h.j.j.j.j.k.*.k.k.l.l.l.l.j.j.j.j.z.z.z.z.x.x.x.x.c.c.c.c.l.l.l.l.c.c.c.c.x.x.x.x.v.v.v.v.c.c.:.:.z z z z x d d f ",
"                                                                                                                                              1 q q ; k e c T T 2.2.2.1.3.4.4.4.5.5.5.5.b.b.b.7.8.8.9.9.0.0.0.0.q.q.q.n.m.w.w.w.e.e.e.e.e.e.e.e.r.r.r.r.t.t.t.t.y.y.y.y.u.u.u.u.i.i.i.i.p.p.p.p.a.a.a.a.s.s.s.s.i.i.i.i.M. . . .........X.X.X.X.d.d.d.d.f.f.f.f.N.+.+.+.@.@.@.@.o.d.d.d.B.B.B.B.g.g.g.g.h.h.h.h.j.j.j.j.k.k.k.k.l.l.l.l.j.j.j.j.z.z.z.z.x.x.x.x.c.c.c.c.l.l.l.l.c.c.c.c.x.x.x.x.v.v.v.v.c.c.c.c.z z z h v d d f ",
"                                                                                                                                              . 1 # b > n m M M V.C.C.C.@.@.@.@.Z.Z.Z.Z.A.A.A.A.S.S.S.S.D.D.D.D.F.F.F.F.G.G.G.G.H.H.H.H.J.J.J.J.K.K.K.K.J.J.J.J.L.L.L.L.P.P.P.P.I.I.I.I.U.U.U.U.Y.Y.Y.Y.L.L.L.L.L.L.L.L.U.U.U.U.T.T.T.T.R.R.R.R.R.R.R.R.E.E.E.E.R.R.R.R.R.R.R.R.J.J.J.J.W.W.W.W.Q.Q.Q.Q.Q.Q.Q.Q.!.!.!.!.!.!.!.!.~.~.~.~.~.~.~.~.Q.Q.^.^././././.(.(.(.(.(.(.(.(.(.(.(.(.(.(.(.(.(.(.(.(.).).).).N N N B V d d f ",
"                                                                                                                                              . 1 + C : n n Z M C.C.C.C.@.@.@.@.Z.Z.Z.Z.A.A.A.A.S.S.S.S.D.D.D.D.F.F.F.F.G.G.G.G.H.H.H.H.J._._._.K.K.K.K.`.`.`.`.'.'.'.].[.[.{.{.}.}.}.}.|.|.|.|. X X X X.X.XXXXXoXoXoXoXOXOXOXOX+X+X+X+X@X@X#X@X$X$X%X%X&X&X&X&X*X=X=X=X%X$X$X$X-X-X-X-X;X;X;X;X:X:X:X:X:X:X:X:X>X>X>X>X,X,X,X,X;X;X;X;X<X<X<X<X:X:X:X:X1X1X1X1X2X2X2X2X2X2X2X2X2X2X2X2X2X2X2X2X2X2X2X2X3X3X3X3XB B B B A d d f ",
"                                                                                                                                                1 + # b S n n D 4X4X4X4X5X5X5X5X6X6X6X6X7X7X7X7XS.S.S.S.D.D.D.D.F.F.F.F.G.G.G.G.H.H.H.H.J._._._.K.K.K.K.`.`.`.`.'.'.'.'.{.{.{.{.}.}.}.}.|.|.|.|. X X X X.X.X.XXXoXoXoXoX8X8X8X8XT.+X+X+X#X#X#X#X$X$X%X$X&X&X&X&X*X=X=X=X%X$X$X$X-X-X-X-X;X;X;X;X:X:X:X:X:X:X:X:X>X>X>X>X,X,X,X,X;X;X;X;X<X<X<X<X:X:X:X:X1X1X1X1X2X2X2X2X2X2X2X2X2X2X2X2X2X2X2X2X2X2X2X2X3X3X3X3XB B B B V d f f ",
"                                                                                                                                                1 1 + # S S n n F F F F u u u u u u u u u u u u p p p p p p p p p p p p p p p p p p p p G G G G p p p p p p p p u u u u u u u u u u u u p p p p p p p p H H H H p p p p i i i i u u u u J J J J u u u u p p p p G G G G u u u u p p p p p p p p p p p p p p p p p p p p G G G G G G G G H H H H p p p p H H H H p p p p p p p p p p p p p p p p p p p p p p p p K L L L d f f f ",
"                                                                                                                                                  . X O # 2 < P k I n n 6 6 6 6 6 6 6 6 6 6 6 6 6 6 6 6 6 6 6 6 6 6 6 6 6 6 6 6 6 6 6 6 6 6 6 6 6 6 6 6 6 6 6 6 6 6 6 6 6 6 6 6 6 6 6 6 6 6 6 6 6 6 6 6 6 6 6 6 6 6 6 6 6 6 6 6 6 6 6 6 6 6 6 6 6 6 6 6 6 6 6 6 6 6 6 6 6 6 6 6 6 6 6 6 6 6 6 6 6 6 6 6 6 6 6 6 6 6 6 6 6 6 6 6 6 6 6 6 6 6 6 6 6 6 6 6 6 6 6 6 6 6 6 6 6 6 6 6 6 6 6 6 6 6 6 6 6 6 6 6 6 6 6 6 7 7 8 9 , 0 % = ",
"                                                                                                                                                    1 U + # C 2 < < , , > > > > > > > > > > > > > > > > > > > > > > > > > > > > > > > > > > > > > > > > > > > > > > > > > > > > > > > > > > > > > > > > > > > > > > > > > > > > > > > > > > > > > > > > > > > > > > > > > > > > > > > > > > > > > > > > > > > > > > > > > > > > > > > > > > > > > > > > > > > > > > > > > > > > > > > > > > > > > > > > > > > > , , < < & % = o ",
"                                                                                                                                                      . 1 + + # # # Y Y % % % % % % % % % % % % % % % % % % % % % % % % % % % % % % % % % % % % % % % % % % % % % % % % % % % % % % % % % % % % % % % % % % % % % % % % % % % % % % % % % % % % % % % % % % % % % % % % % % % % % % % % % % % % % % % % % % % % % % % % % % % % % % % % % % % % % % % % % % % % % % % % % % % % % % % % % % % % % % % % % % % % & & * * = o o . ",
"                                                                                                                                                        1 1 1 1 U U U U O O O O O O O O O O O O O O O O O O O O O O O O O O O O O O O O O O O O O O O O O O O O O O O O O O O O O O O O O O O O O O O O O O O O O O O O O O O O O O O O O O O O O O O O O O O O O O O O O O O O O O O O O O O O O O O O O O O O O O O O O O O O O O O O O O O O O O O O O O O O O O O O O O O O O O O O O O O O O O O O O O O O o o o o . . . . "
};
