/* XPM */
static char *f6dfeffce9f0437dff1e471c443a3bfdNDzrzpotzxbMafO9[] = {
/* columns rows colors chars-per-pixel */
"184 36 2 1 ",
"  c #030303",
". c white",
/* pixels */
"........................................................................................................................................................................................",
"........................................................................................................................................................................................",
"..                                                                                                                                                                                    ..",
"..                                                                                                                                                                                    ..",
"..                                                                                                                                                                                    ..",
"..                                                                                                                                                                                    ..",
"..                                                                                                                                                                                    ..",
"..                                                                                                                                                                                    ..",
"..                                                                                                                                                                                    ..",
"..                                                                                                                                                                                    ..",
"..                                                                                                                                                                                    ..",
"..                                                                                                                                                                                    ..",
"..                                                                                                                                                                                    ..",
"..                                                                                                                                                                                    ..",
"..                                                                                                                                                                                    ..",
"..                                                                                                                                                                                    ..",
"..                                                                                                                                                                                    ..",
"..                                                                                                                                                                                    ..",
"..                                                                                                                                                                                    ..",
"..                                                                                                                                                                                    ..",
"..                                                                                                                                                                                    ..",
"..                                                                                                                                                                                    ..",
"..                                                                                                                                                                                    ..",
"..                                                                                                                                                                                    ..",
"..                                                                                                                                                                                    ..",
"..                                                                                                                                                                                    ..",
"..                                                                                                                                                                                    ..",
"..                                                                                                                                                                                    ..",
"..                                                                                                                                                                                    ..",
"..                                                                                                                                                                                    ..",
"..                                                                                                                                                                                    ..",
"..                                                                                                                                                                                    ..",
"..                                                                                                                                                                                    ..",
"..                                                                                                                                                                                    ..",
"........................................................................................................................................................................................",
"........................................................................................................................................................................................"
};
