/* XPM */
static char * mm_ammo_xpm[] = {
"32 32 156 2",
"  	c None",
". 	c #F6DA4C",
"+ 	c #F1DC56",
"@ 	c #F6D93E",
"# 	c #F5DA50",
"$ 	c #F8D835",
"% 	c #F7D942",
"& 	c #F7D934",
"* 	c #F5D94F",
"= 	c #F4DA4C",
"- 	c #F5DB4C",
"; 	c #F6D836",
"> 	c #F7D933",
", 	c #F6D94B",
"' 	c #F5D945",
") 	c #F7D943",
"! 	c #F3DA5B",
"~ 	c #F8D933",
"{ 	c #F8D932",
"] 	c #F7DB53",
"^ 	c #F8D834",
"/ 	c #F7D932",
"( 	c #F6D945",
"_ 	c #F6DB4B",
": 	c #F8D931",
"< 	c #F4DA52",
"[ 	c #F0D12F",
"} 	c #F0D030",
"| 	c #EED03E",
"1 	c #F3DC57",
"2 	c #F9D834",
"3 	c #F8D833",
"4 	c #F5DA5B",
"5 	c #F6DA4A",
"6 	c #C3A317",
"7 	c #C4A217",
"8 	c #C2A31F",
"9 	c #F4D94A",
"0 	c #F7D834",
"a 	c #F4DA4B",
"b 	c #F6DA54",
"c 	c #F6D93A",
"d 	c #C4A316",
"e 	c #C5A316",
"f 	c #F4D843",
"g 	c #F7D935",
"h 	c #F6D840",
"i 	c #F5D845",
"j 	c #C4A317",
"k 	c #C2A320",
"l 	c #C5A720",
"m 	c #C6A517",
"n 	c #C6A518",
"o 	c #C5A623",
"p 	c #EFD650",
"q 	c #F0D131",
"r 	c #EFD137",
"s 	c #C2A421",
"t 	c #C4A416",
"u 	c #C3A420",
"v 	c #F6DA42",
"w 	c #F7D830",
"x 	c #F5DA55",
"y 	c #C3A62D",
"z 	c #C5A317",
"A 	c #C4A415",
"B 	c #C6A836",
"C 	c #D0B029",
"D 	c #D1B020",
"E 	c #D1B021",
"F 	c #D8B927",
"G 	c #D8B827",
"H 	c #D8B828",
"I 	c #D7B932",
"J 	c #E7CD4B",
"K 	c #E6C72C",
"L 	c #E6C72D",
"M 	c #E8CC49",
"N 	c #C2A31E",
"O 	c #C4A318",
"P 	c #C3A41D",
"Q 	c #F8D830",
"R 	c #C3A31D",
"S 	c #DFC443",
"T 	c #E4C42D",
"U 	c #E4C52C",
"V 	c #E4C42C",
"W 	c #DFC342",
"X 	c #D9BD2E",
"Y 	c #DCBC28",
"Z 	c #DBBB27",
"` 	c #C2A424",
" .	c #C3A316",
"..	c #C3A323",
"+.	c #F6D832",
"@.	c #F8D832",
"#.	c #F8D733",
"$.	c #F4D949",
"%.	c #C2A422",
"&.	c #C3A216",
"*.	c #C2A321",
"=.	c #EACE43",
"-.	c #ECCE30",
";.	c #EDCE2F",
">.	c #EDCD31",
",.	c #EDCE2D",
"'.	c #C3A41C",
").	c #C4A215",
"!.	c #C3A423",
"~.	c #C4A31C",
"{.	c #C3A215",
"].	c #C3A315",
"^.	c #C4A315",
"/.	c #C4A216",
"(.	c #C4A31D",
"_.	c #C3A31C",
":.	c #C3A415",
"<.	c #C2A322",
"[.	c #DBBC29",
"}.	c #DCBC29",
"|.	c #DABC34",
"1.	c #D8BD40",
"2.	c #DDBC28",
"3.	c #D8BE41",
"4.	c #DCBD35",
"5.	c #DBBB28",
"6.	c #F7D931",
"7.	c #F3DA54",
"8.	c #F9D832",
"9.	c #F5D947",
"0.	c #F7D732",
"a.	c #F8D732",
"b.	c #F7D831",
"c.	c #EDD145",
"d.	c #EDCF30",
"e.	c #EECF30",
"f.	c #EFCE31",
"g.	c #EBD55B",
"h.	c #EECF35",
"i.	c #EECF31",
"j.	c #EECF33",
"k.	c #E9D35E",
"l.	c #EDCF31",
"m.	c #EECE32",
"n.	c #EDD042",
"o.	c #C3A527",
"p.	c #C3A735",
"q.	c #C4A735",
"r.	c #C4A52C",
"s.	c #C2A317",
"t.	c #C4A41B",
"u.	c #C6A938",
"v.	c #C5AA41",
"w.	c #C6AA43",
"x.	c #C5A734",
"y.	c #C4A41C",
"                .                                               ",
"              + @                                               ",
"              # $                                               ",
"              % & *           = -                               ",
"              ; > ,           ' )             !                 ",
"              ~ { ]           ^ /             (                 ",
"              ~ { _           ~ :             $ <               ",
"              [ } |         1 2 3 4           > 5               ",
"              6 7 8         9 3 0 a         b ~ c               ",
"              d e 8         f 0 g h         i ~ ~               ",
"              j j k         l m n o         _ ~ ~               ",
"            p q } r         s e t u         v { 3               ",
"            @ ~ ^ w x       y z A B         C D E               ",
"            F F G H I       J K L M         N d d               ",
"            O d d d P       Q ^ ~ $         8 d d               ",
"            t d d d R     S T U V V W       X Y Z               ",
"            t d d d P     ` 6  .6 6 ..      +.@.#.$.            ",
"            t d d d R     %.d d d &.*.    =.-.;.>.,.            ",
"            t d d d P     %.d d d j *.    '.6 d ).6             ",
"            t d d d R     %.d d d j !.    ~.d {.&.].            ",
"            t d d d P     %.d d d j %.    ~.d {.&.^.            ",
"            t d d d R     %.d d d /.s     (.d d &.^.            ",
"            t d d d R     %.d d d &.*.    _.d d &.:.            ",
"            t d d d P     %.d d {.&.<.    _.{.{.&.].            ",
"            t d d d P     %.d d d &.%.    _.{.{.&.].            ",
"            d d d d '.    %.d  . . .!.    R  . .6 ].            ",
"            [.}.}.}.|.    1.2.}.}.}.3.    4.Y 5.[.Y             ",
"            6.{ { : .     7.8.3 { : x     9.w 0.a.b.            ",
"            c.d.e.f.g.      h.i.e.j.      k.d.l.m.n.            ",
"            O d d d o.    p.j d {.d q.    r.{.{.).s.            ",
"            t.d d d u.    v.j d {.d w.    x.{.d ).y.            ",
"                                                                "};
