/* XPM */
static char * mm_door_closed_xpm[] = {
"32 32 594 2",
"  	c None",
". 	c #624F41",
"+ 	c #6E5640",
"@ 	c #74593F",
"# 	c #866443",
"$ 	c #936E47",
"% 	c #8F6A44",
"& 	c #815D3C",
"* 	c #896642",
"= 	c #8E6B45",
"- 	c #856442",
"; 	c #6D523B",
"> 	c #664C3B",
", 	c #52443F",
"' 	c #644D3E",
") 	c #7D6043",
"! 	c #8E724D",
"~ 	c #997D55",
"{ 	c #90714B",
"] 	c #987850",
"^ 	c #A38559",
"/ 	c #9E7E53",
"( 	c #8D6D47",
"_ 	c #97784F",
": 	c #9E7E54",
"< 	c #93734C",
"[ 	c #805E3C",
"} 	c #83613E",
"| 	c #7F5C3B",
"1 	c #715239",
"2 	c #644C39",
"3 	c #725740",
"4 	c #7F6041",
"5 	c #8E704C",
"6 	c #A2875E",
"7 	c #A68C61",
"8 	c #94754D",
"9 	c #94734A",
"0 	c #9E7E52",
"a 	c #9A794E",
"b 	c #8B6A43",
"c 	c #94744B",
"d 	c #9A7A50",
"e 	c #927149",
"f 	c #85633E",
"g 	c #917049",
"h 	c #91704A",
"i 	c #83613F",
"j 	c #734F32",
"k 	c #704D32",
"l 	c #6F553E",
"m 	c #8B6D4A",
"n 	c #906F48",
"o 	c #907048",
"p 	c #9F8056",
"q 	c #9F8157",
"r 	c #8E6C44",
"s 	c #8D6940",
"t 	c #967247",
"u 	c #926E44",
"v 	c #86623B",
"w 	c #8C6A41",
"x 	c #937146",
"y 	c #8E6A41",
"z 	c #825D38",
"A 	c #8C6B45",
"B 	c #927049",
"C 	c #896540",
"D 	c #7D5936",
"E 	c #7C5939",
"F 	c #6B4B34",
"G 	c #886741",
"H 	c #96764E",
"I 	c #8F6E47",
"J 	c #89643D",
"K 	c #977246",
"L 	c #967044",
"M 	c #88623A",
"N 	c #89633C",
"O 	c #916B42",
"P 	c #8D673F",
"Q 	c #845E37",
"R 	c #88653C",
"S 	c #8F6B40",
"T 	c #8B653C",
"U 	c #805933",
"V 	c #86623C",
"W 	c #8B6741",
"X 	c #85613D",
"Y 	c #815E3B",
"Z 	c #86623F",
"` 	c #715036",
" .	c #6B503D",
"..	c #8C6C47",
"+.	c #8F6C45",
"@.	c #855F39",
"#.	c #86603A",
"$.	c #977449",
"%.	c #967045",
"&.	c #87613C",
"*.	c #8E6842",
"=.	c #8C6640",
"-.	c #835E37",
";.	c #89653C",
">.	c #8C693F",
",.	c #88643C",
"'.	c #835D37",
").	c #8B6640",
"!.	c #8B6641",
"~.	c #825E3A",
"{.	c #7F5C38",
"].	c #87633F",
"^.	c #7E5B3B",
"/.	c #7B593B",
"(.	c #8B6B45",
"_.	c #886740",
":.	c #825F3A",
"<.	c #87623C",
"[.	c #936E43",
"}.	c #916D44",
"|.	c #86613A",
"1.	c #87613B",
"2.	c #835E38",
"3.	c #8B683F",
"4.	c #7F5C36",
"5.	c #88643D",
"6.	c #87643D",
"7.	c #805D38",
"8.	c #7E5C37",
"9.	c #866644",
"0.	c #6E5139",
"a.	c #82603F",
"b.	c #82603B",
"c.	c #825E38",
"d.	c #815C37",
"e.	c #8F6942",
"f.	c #8E6B42",
"g.	c #836039",
"h.	c #84603A",
"i.	c #8C6740",
"j.	c #8A643E",
"k.	c #8C6741",
"l.	c #85623D",
"m.	c #7E5B36",
"n.	c #84613B",
"o.	c #85623C",
"p.	c #805E38",
"q.	c #7F5C37",
"r.	c #84623C",
"s.	c #85643F",
"t.	c #77593D",
"u.	c #6F533B",
"v.	c #775535",
"w.	c #74512E",
"x.	c #77522E",
"y.	c #79532F",
"z.	c #7D5733",
"A.	c #896948",
"B.	c #805F3C",
"C.	c #825F38",
"D.	c #8A663F",
"E.	c #8A6540",
"F.	c #835F3A",
"G.	c #8A653F",
"H.	c #8D6842",
"I.	c #86633C",
"J.	c #7D5A37",
"K.	c #816444",
"L.	c #7E5F3C",
"M.	c #795632",
"N.	c #785531",
"O.	c #7B5934",
"P.	c #7A5734",
"Q.	c #705133",
"R.	c #6B4D33",
"S.	c #6D4C30",
"T.	c #715338",
"U.	c #75583B",
"V.	c #785B3E",
"W.	c #7C5F41",
"X.	c #826647",
"Y.	c #876E54",
"Z.	c #826446",
"`.	c #83603C",
" +	c #88653F",
".+	c #83603B",
"++	c #89653F",
"@+	c #86653F",
"#+	c #806246",
"$+	c #836D54",
"%+	c #7F654A",
"&+	c #795C3F",
"*+	c #775A3C",
"=+	c #785B3D",
"-+	c #75573B",
";+	c #664830",
">+	c #5E3F29",
",+	c #71553D",
"'+	c #79624C",
")+	c #7D684F",
"!+	c #826E54",
"~+	c #877259",
"{+	c #89745A",
"]+	c #8C785C",
"^+	c #856B4F",
"/+	c #836342",
"(+	c #86633E",
"_+	c #88643F",
":+	c #88653E",
"<+	c #856645",
"[+	c #866E56",
"}+	c #88745D",
"|+	c #87735A",
"1+	c #7E6A50",
"2+	c #7E6950",
"3+	c #7A654E",
"4+	c #6A523D",
"5+	c #614631",
"6+	c #67482F",
"7+	c #6E5238",
"8+	c #6E563E",
"9+	c #735C44",
"0+	c #786047",
"a+	c #7A624A",
"b+	c #826B51",
"c+	c #806344",
"d+	c #815F3B",
"e+	c #886540",
"f+	c #846340",
"g+	c #7C6147",
"h+	c #7E6952",
"i+	c #7A634C",
"j+	c #735B43",
"k+	c #6E573F",
"l+	c #6C533E",
"m+	c #62452F",
"n+	c #5D3D25",
"o+	c #613F23",
"p+	c #684629",
"q+	c #6B4B2D",
"r+	c #6A4B2F",
"s+	c #6C4D32",
"t+	c #735436",
"u+	c #76573C",
"v+	c #7A5938",
"w+	c #795839",
"x+	c #73573E",
"y+	c #725338",
"z+	c #6E4E31",
"A+	c #6B4C2E",
"B+	c #6A4B2E",
"C+	c #684930",
"D+	c #613F26",
"E+	c #5D3A1F",
"F+	c #674424",
"G+	c #6E4B2A",
"H+	c #704E2C",
"I+	c #6E4D2B",
"J+	c #72502E",
"K+	c #7B5834",
"L+	c #775433",
"M+	c #7A5733",
"N+	c #86633D",
"O+	c #84613C",
"P+	c #8D6841",
"Q+	c #795837",
"R+	c #7A5835",
"S+	c #74512D",
"T+	c #6F4E2E",
"U+	c #654326",
"V+	c #603D21",
"W+	c #6D4A28",
"X+	c #745330",
"Y+	c #755431",
"Z+	c #795835",
"`+	c #815F3A",
" @	c #7D5A35",
".@	c #7C5934",
"+@	c #85633D",
"@@	c #85633C",
"#@	c #87643C",
"$@	c #83613B",
"%@	c #7C5834",
"&@	c #7B5835",
"*@	c #694829",
"=@	c #634125",
"-@	c #6A4728",
";@	c #73522F",
">@	c #785733",
",@	c #7D5B38",
"'@	c #8B6740",
")@	c #85613B",
"!@	c #7A5634",
"~@	c #795636",
"{@	c #634124",
"]@	c #674527",
"^@	c #71502D",
"/@	c #755330",
"(@	c #775632",
"_@	c #7C5A35",
":@	c #7C5835",
"<@	c #84623D",
"[@	c #82603D",
"}@	c #886440",
"|@	c #82603A",
"1@	c #7C5A36",
"2@	c #765431",
"3@	c #765432",
"4@	c #745331",
"5@	c #684627",
"6@	c #613E22",
"7@	c #664426",
"8@	c #6F4F2D",
"9@	c #7D5A36",
"0@	c #7B5734",
"a@	c #806141",
"b@	c #856E52",
"c@	c #876F54",
"d@	c #856C50",
"e@	c #846645",
"f@	c #83603A",
"g@	c #805C36",
"h@	c #825F3B",
"i@	c #7B5936",
"j@	c #6E4E2D",
"k@	c #735330",
"l@	c #775532",
"m@	c #7B5833",
"n@	c #7B5733",
"o@	c #785431",
"p@	c #7A5C3E",
"q@	c #806B53",
"r@	c #7E664D",
"s@	c #7F6142",
"t@	c #805C37",
"u@	c #7F5B36",
"v@	c #805E39",
"w@	c #795733",
"x@	c #664528",
"y@	c #5E3C22",
"z@	c #6D4D2C",
"A@	c #765532",
"B@	c #795633",
"C@	c #7A5633",
"D@	c #75522F",
"E@	c #755637",
"F@	c #796047",
"G@	c #755B43",
"H@	c #75593F",
"I@	c #785839",
"J@	c #7A5833",
"K@	c #7F5D38",
"L@	c #73512F",
"M@	c #664428",
"N@	c #5D3C23",
"O@	c #644225",
"P@	c #6B4929",
"Q@	c #735230",
"R@	c #755331",
"S@	c #785635",
"T@	c #745233",
"U@	c #75573D",
"V@	c #70533A",
"W@	c #6E5137",
"X@	c #725333",
"Y@	c #785632",
"Z@	c #7C5935",
"`@	c #81613D",
" #	c #7E5D3A",
".#	c #765331",
"+#	c #714E2D",
"@#	c #714F2D",
"##	c #664325",
"$#	c #5F3C21",
"%#	c #5E3B20",
"&#	c #6A4729",
"*#	c #6B4A2C",
"=#	c #6C4B2E",
"-#	c #6F4F30",
";#	c #755A40",
">#	c #745537",
",#	c #745030",
"'#	c #613E24",
")#	c #694728",
"!#	c #765636",
"~#	c #7B6147",
"{#	c #77583A",
"]#	c #704D2C",
"^#	c #6E4B2B",
"/#	c #6B4829",
"(#	c #613D21",
"_#	c #5C371D",
":#	c #634731",
"<#	c #6E533B",
"[#	c #725840",
"}#	c #755D46",
"|#	c #79614A",
"1#	c #7C664C",
"2#	c #796046",
"3#	c #7A5632",
"4#	c #73502E",
"5#	c #6D4929",
"6#	c #73502D",
"7#	c #7C5B3D",
"8#	c #7E654B",
"9#	c #826D55",
"0#	c #7F694F",
"a#	c #7A6147",
"b#	c #775D43",
"c#	c #765C43",
"d#	c #725941",
"e#	c #674A34",
"f#	c #61402B",
"g#	c #604531",
"h#	c #6B513B",
"i#	c #6E5742",
"j#	c #715C47",
"k#	c #76614A",
"l#	c #79654D",
"m#	c #7D6A52",
"n#	c #765E46",
"o#	c #755638",
"p#	c #74502E",
"q#	c #7B593C",
"r#	c #7B634A",
"s#	c #7E6A52",
"t#	c #7A664F",
"u#	c #746049",
"v#	c #725C46",
"w#	c #715B45",
"x#	c #6D5741",
"y#	c #654934",
"z#	c #60412B",
"A#	c #573723",
"B#	c #5F402B",
"C#	c #614531",
"D#	c #634933",
"E#	c #674D36",
"F#	c #6B523B",
"G#	c #6F5840",
"H#	c #715131",
"I#	c #724E2C",
"J#	c #775431",
"K#	c #765434",
"L#	c #705339",
"M#	c #705840",
"N#	c #6D543D",
"O#	c #684E37",
"P#	c #644B35",
"Q#	c #644A34",
"R#	c #62462F",
"S#	c #5D3C25",
"T#	c #5A371F",
"U#	c #573219",
"V#	c #5D381D",
"W#	c #694628",
"X#	c #66472B",
"Y#	c #6A4829",
"Z#	c #6E4B29",
"`#	c #73512E",
" $	c #72512E",
".$	c #6C4A29",
"+$	c #69492D",
"@$	c #6C4B2C",
"#$	c #694626",
"$$	c #643F21",
"%$	c #633E20",
"&$	c #5A351A",
"*$	c #552F16",
"=$	c #5D3B22",
"-$	c #654224",
";$	c #674428",
">$	c #644227",
",$	c #664326",
"'$	c #6C492A",
")$	c #6B4A2A",
"!$	c #6B4928",
"~$	c #6D4B29",
"{$	c #765234",
"]$	c #724F2C",
"^$	c #6A4726",
"/$	c #694625",
"($	c #5F3B1E",
"_$	c #59341A",
":$	c #57361F",
"<$	c #5F3D23",
"[$	c #603E25",
"}$	c #614024",
"|$	c #664427",
"1$	c #664529",
"2$	c #634126",
"3$	c #654428",
"4$	c #69492B",
"5$	c #67472A",
"6$	c #664629",
"7$	c #68482B",
"8$	c #674629",
"9$	c #6D4B2E",
"0$	c #6F4D2F",
"a$	c #684729",
"b$	c #624024",
"c$	c #613F24",
"d$	c #59351D",
"e$	c #542F19",
"f$	c #624935",
"g$	c #6D553F",
"h$	c #6F5945",
"i$	c #6E5946",
"j$	c #6F5A46",
"k$	c #725C47",
"l$	c #75604B",
"m$	c #76614D",
"n$	c #78634E",
"o$	c #7B6651",
"p$	c #7B6854",
"q$	c #715D49",
"r$	c #796551",
"s$	c #7C6853",
"t$	c #79644F",
"u$	c #79634E",
"v$	c #78614B",
"w$	c #77614B",
"x$	c #755F4A",
"y$	c #735D49",
"z$	c #725D49",
"A$	c #664E3B",
"B$	c #5F4531",
"C$	c #67523E",
"D$	c #725E4A",
"E$	c #74634F",
"F$	c #746351",
"G$	c #746451",
"H$	c #766553",
"I$	c #7B6A57",
"J$	c #7F6E5A",
"K$	c #81705B",
"L$	c #84735E",
"M$	c #867662",
"N$	c #796956",
"O$	c #83735F",
"P$	c #867561",
"Q$	c #82715C",
"R$	c #816F5A",
"S$	c #7E6C56",
"T$	c #7C6A56",
"U$	c #7C6955",
"V$	c #7C6854",
"W$	c #6D5744",
"X$	c #644D38",
"Y$	c #563E2C",
"Z$	c #5C4634",
"`$	c #5E4937",
" %	c #604B39",
".%	c #654F3C",
"+%	c #68533E",
"@%	c #6A543F",
"#%	c #6D5841",
"$%	c #6E5945",
"%%	c #66503E",
"&%	c #6C5743",
"*%	c #6E5A45",
"=%	c #6D5842",
"-%	c #6C563F",
";%	c #6B553F",
">%	c #69543E",
",%	c #69523E",
"'%	c #694F3B",
")%	c #664A36",
"!%	c #654935",
"~%	c #5B3E2B",
"{%	c #553724",
"]%	c #553C2B",
"^%	c #5A4433",
"/%	c #5D4A36",
"(%	c #5F4B38",
"_%	c #624C3A",
":%	c #644F3B",
"<%	c #65503C",
"[%	c #67513C",
"}%	c #69533E",
"|%	c #6B5642",
"1%	c #6C5745",
"2%	c #644E3C",
"3%	c #695440",
"4%	c #6C5843",
"5%	c #6C5742",
"6%	c #6B5741",
"7%	c #6A5540",
"8%	c #69533D",
"9%	c #69523C",
"0%	c #68513B",
"a%	c #654E3A",
"b%	c #593E2B",
"c%	c #553826",
"                    . + @ # $ % & * = - ; >                     ",
"              , ' ) ! ~ { ] ^ / ( _ : < [ } | 1 2               ",
"            , 3 4 5 6 7 8 9 0 a b c d e f g h i j k             ",
"            l m n o p q r s t u v w x y z A B C D E F           ",
"            G H I J K L M N O P Q R S T U V W X Y Z `           ",
"           ...+.@.#.$.%.M &.*.=.-.;.>.,.'.).!.~.{.].^.          ",
"          /.(._.:.<.[.}.|.1.*.=.2.;.3.v 4.5.6.7.8.f 9.0.        ",
"          a.b.c.d.#.e.f.g.h.i.=.2.j.k.l.m.n.o.p.q.r.s.t.u.      ",
"          v.w.x.y.z.X A.B.C.D.E.F.G.H.I.J.K.L.M.N.O.P.Q.R.      ",
"          S.T.U.V.W.X.Y.Z.`. +C .+++i.@+#+$+%+&+*+=+-+;+>+      ",
"          ,+'+)+!+~+{+]+^+/+(+C .+_+:+<+[+}+|+!+1+2+3+4+5+      ",
"          6+7+8+9+0+a+b+c+d+(+e+.+E.).f+g+h+i+j+k+k+l+m+n+      ",
"          o+p+q+r+s+t+u+v+p.(+e+.+E.k.l.w+x+y+z+A+B+C+D+E+      ",
"          F+G+H+I+J+K+L+M+p.N+ +O+).P+I.K+Q+R+N.S+w.T+U+V+      ",
"          W+X+Y+Y+Z+`+ @.@p.+@6.@@).P+#@m.$@r.7.%@&@Y+*@=@      ",
"          -@;@Y+Y+>@,@ @.@7.r.r.r.).'@)@m.$@r.q.!@~@Y+*@{@      ",
"          ]@^@/@Y+(@_@{.:@q.r.<@[@}@ +|@m.$@b.1@2@3@4@5@6@      ",
"          7@8@X+Y+(@.@9@0@0@a@b@c@d@e@f@g@$@h@i@Y+Y+X+5@V+      ",
"          7@j@k@Y+l@m@.@n@o@p@q@q@r@s@t@u@$@v@w@X+Y+4@x@y@      ",
"          7@z@;@Y+A@B@m@C@D@E@F@G@H@I@J@ @f@K@l@L@Y+X+M@N@      ",
"          O@P@H+L@Q@R@S@A@w.T@U@V@W@X@Y@Z@`@ #.#+#;@@###$#      ",
"          %#U+&#*#=#-#;#>#2@,#M@'#)#D@w@!#~#{#]#G+^#/#(#_#      ",
"          :#<#[#}#|#1#q@2#I@3#4#5#6#C@7#8#9#0#a#b#c#d#e#f#      ",
"          g#h#i#j#k#l#m#n#o#J@m@p#M.:@q#r#s#t#u#v#w#x#y#z#      ",
"          A#B#C#D#E#F#G#7+H#l@Y@I#J#M+K#L#M#N#O#P#Q#R#S#T#      ",
"          U#V#$#%#6@W#X#Y#@#Y+X+Z#`#Y+ $.$+$@$#$$$$$%$&$*$      ",
"          =$-$;$>$,$'$)$!$H+Y+;@~$J+X+H+G+{$B@]$^$^$/$($_$      ",
"          :$<$D+[$}$|$1$2$3$4$5$2$6$7$8$]@9$0$a$b$b$c$d$e$      ",
"          f$g$h$i$j$k$l$m$n$o$p$q$r$s$t$u$v$w$x$y$y$z$A$B$      ",
"          C$D$E$F$G$H$I$J$K$L$M$N$O$P$Q$R$S$T$T$U$V$p$W$X$      ",
"          Y$Z$`$`$ %.%C$+%@%#%$%%%&%*%=%-%;%>%,%'%)%!%~%{%      ",
"          ]%^%/%(%_%:%<%[%}%|%1%2%3%4%5%6%7%8%9%0%a%f$b%c%      "};
