/* XPM */
static char * mm_door_open_xpm[] = {
"32 32 331 2",
"  	c None",
". 	c #564B47",
"+ 	c #735B45",
"@ 	c #82603D",
"# 	c #6C4F39",
"$ 	c #50403D",
"% 	c #73503A",
"& 	c #826041",
"* 	c #846444",
"= 	c #7C5C42",
"- 	c #6F5644",
"; 	c #866B4B",
"> 	c #907049",
", 	c #73563E",
"' 	c #513C3A",
") 	c #734F39",
"! 	c #8B6C4C",
"~ 	c #977851",
"{ 	c #866847",
"] 	c #745944",
"^ 	c #8E6E49",
"/ 	c #94754E",
"( 	c #8F6F48",
"_ 	c #71523B",
": 	c #8E6E4C",
"< 	c #A08258",
"[ 	c #947650",
"} 	c #856544",
"| 	c #8F7351",
"1 	c #9B7D55",
"2 	c #906F48",
"3 	c #70523A",
"4 	c #734D38",
"5 	c #91714D",
"6 	c #A78A5E",
"7 	c #A2855C",
"8 	c #8B7051",
"9 	c #765841",
"0 	c #937857",
"a 	c #9D815A",
"b 	c #8B6A45",
"c 	c #6C4D37",
"d 	c #8A6845",
"e 	c #A5885D",
"f 	c #AC9165",
"g 	c #927756",
"h 	c #674E43",
"i 	c #755841",
"j 	c #967C5B",
"k 	c #9E835D",
"l 	c #876742",
"m 	c #684934",
"n 	c #523C3A",
"o 	c #866442",
"p 	c #A4875D",
"q 	c #B0966A",
"r 	c #957B58",
"s 	c #654A3F",
"t 	c #8E7456",
"u 	c #9B805D",
"v 	c #997B56",
"w 	c #82613D",
"x 	c #664733",
"y 	c #876442",
"z 	c #A3845C",
"A 	c #AF956A",
"B 	c #9F855D",
"C 	c #836749",
"D 	c #A08663",
"E 	c #9E835E",
"F 	c #8F704B",
"G 	c #7B5834",
"H 	c #664632",
"I 	c #886542",
"J 	c #9F7E55",
"K 	c #AB8F65",
"L 	c #A78B60",
"M 	c #96774D",
"N 	c #9E8461",
"O 	c #9C815B",
"P 	c #876844",
"Q 	c #714E2D",
"R 	c #634532",
"S 	c #523D3A",
"T 	c #744F39",
"U 	c #886543",
"V 	c #9B7951",
"W 	c #A78A60",
"X 	c #A5885E",
"Y 	c #93714B",
"Z 	c #927858",
"` 	c #917552",
" .	c #7B5D3C",
"..	c #664427",
"+.	c #5D4031",
"@.	c #533D3A",
"#.	c #704B36",
"$.	c #815F43",
"%.	c #93734F",
"&.	c #9E8059",
"*.	c #9A7D56",
"=.	c #8B6845",
"-.	c #81664C",
";.	c #81674C",
">.	c #72553D",
",.	c #624127",
"'.	c #5B3E2F",
").	c #513D3B",
"!.	c #6A4533",
"~.	c #7B583E",
"{.	c #8C6C4D",
"].	c #927656",
"^.	c #8F7051",
"/.	c #846141",
"(.	c #7B6046",
"_.	c #7D644B",
":.	c #70563F",
"<.	c #67462A",
"[.	c #5E4330",
"}.	c #4D3D3B",
"|.	c #6A4534",
"1.	c #7F5A3A",
"2.	c #8E6D4C",
"3.	c #917659",
"4.	c #8D7154",
"5.	c #816147",
"6.	c #6F4F34",
"7.	c #6C4B2E",
"8.	c #6B4827",
"9.	c #5F4431",
"0.	c #4D3D3C",
"a.	c #694433",
"b.	c #876341",
"c.	c #926E45",
"d.	c #886641",
"e.	c #82603F",
"f.	c #785235",
"g.	c #7D5B38",
"h.	c #7D5B39",
"i.	c #735130",
"j.	c #6A4725",
"k.	c #5E422F",
"l.	c #503D39",
"m.	c #704F3D",
"n.	c #866342",
"o.	c #977348",
"p.	c #99764B",
"q.	c #916D44",
"r.	c #825B37",
"s.	c #836342",
"t.	c #826241",
"u.	c #765535",
"v.	c #623F22",
"w.	c #593823",
"x.	c #593D2B",
"y.	c #887059",
"z.	c #846347",
"A.	c #8D673F",
"B.	c #9B784E",
"C.	c #93714A",
"D.	c #825F3B",
"E.	c #7F603E",
"F.	c #725230",
"G.	c #613D20",
"H.	c #57351F",
"I.	c #563723",
"J.	c #7C644E",
"K.	c #7B5C40",
"L.	c #88653F",
"M.	c #98754B",
"N.	c #8F6B43",
"O.	c #7C5936",
"P.	c #7F603D",
"Q.	c #72512F",
"R.	c #613D1F",
"S.	c #573724",
"T.	c #543A2D",
"U.	c #735944",
"V.	c #77573B",
"W.	c #86623C",
"X.	c #937148",
"Y.	c #8B6943",
"Z.	c #795532",
"`.	c #7D5E3B",
" +	c #71502E",
".+	c #633F1E",
"++	c #5A3D2E",
"@+	c #52403C",
"#+	c #604635",
"$+	c #745337",
"%+	c #87623D",
"&+	c #8E6B46",
"*+	c #866543",
"=+	c #755432",
"-+	c #7C5D3A",
";+	c #7C5B38",
">+	c #704E2C",
",+	c #643F1E",
"'+	c #5A3E30",
")+	c #504040",
"!+	c #5A3E33",
"~+	c #6F4F35",
"{+	c #825E3A",
"]+	c #734F2D",
"^+	c #795936",
"/+	c #6C4929",
"(+	c #613B1C",
"_+	c #57392B",
":+	c #4C3937",
"<+	c #543B34",
"[+	c #684D3C",
"}+	c #7A5A3C",
"|+	c #81603D",
"1+	c #7C5B3A",
"2+	c #6C4927",
"3+	c #6F4E2F",
"4+	c #6D4C2E",
"5+	c #634228",
"6+	c #593821",
"7+	c #523425",
"8+	c #49302B",
"9+	c #523A35",
"0+	c #614533",
"a+	c #71553D",
"b+	c #745940",
"c+	c #6C4C30",
"d+	c #613F24",
"e+	c #705A44",
"f+	c #755F48",
"g+	c #69513D",
"h+	c #583824",
"i+	c #533321",
"j+	c #50362B",
"k+	c #604C44",
"l+	c #624533",
"m+	c #694D36",
"n+	c #755F49",
"o+	c #775E46",
"p+	c #6D513B",
"q+	c #6A5542",
"r+	c #705B46",
"s+	c #674D38",
"t+	c #57331C",
"u+	c #55321C",
"v+	c #553826",
"w+	c #654F41",
"x+	c #634430",
"y+	c #654329",
"z+	c #6E553F",
"A+	c #715944",
"B+	c #6A4E3A",
"C+	c #674930",
"D+	c #694C31",
"E+	c #613F25",
"F+	c #593620",
"G+	c #593925",
"H+	c #563620",
"I+	c #644B37",
"J+	c #634732",
"K+	c #68472C",
"L+	c #6F4D30",
"M+	c #6B4C31",
"N+	c #624128",
"O+	c #715332",
"P+	c #71512F",
"Q+	c #644022",
"R+	c #5A3A25",
"S+	c #573B2B",
"T+	c #503224",
"U+	c #5E4536",
"V+	c #644C3B",
"W+	c #6F5138",
"X+	c #775532",
"Y+	c #664325",
"Z+	c #6E5337",
"`+	c #6E5235",
" @	c #62432A",
".@	c #593B26",
"+@	c #52382A",
"@@	c #462B26",
"#@	c #543F39",
"$@	c #655142",
"%@	c #6F5740",
"&@	c #715336",
"*@	c #6F4F31",
"=@	c #644227",
"-@	c #69523E",
";@	c #6A533E",
">@	c #614834",
",@	c #583C28",
"'@	c #4E372C",
")@	c #433433",
"!@	c #665342",
"~@	c #6F5A47",
"{@	c #6F5642",
"]@	c #694B34",
"^@	c #60412B",
"/@	c #715D49",
"(@	c #715D48",
"_@	c #664F3C",
":@	c #553928",
"<@	c #4A352F",
"[@	c #604736",
"}@	c #705D4B",
"|@	c #796551",
"1@	c #6C513D",
"2@	c #634834",
"3@	c #705C48",
"4@	c #6F5A46",
"5@	c #644B38",
"6@	c #51372A",
"7@	c #47312B",
"8@	c #56423C",
"9@	c #6D5B4D",
"0@	c #776350",
"a@	c #674E3A",
"b@	c #624532",
"c@	c #6B5745",
"d@	c #6A5644",
"e@	c #604939",
"f@	c #4F382E",
"g@	c #68564A",
"h@	c #705D4D",
"i@	c #644B3B",
"j@	c #5E4232",
"k@	c #4F3B35",
"l@	c #523C35",
"m@	c #513D39",
"n@	c #54413D",
"o@	c #523C38",
"p@	c #4F3934",
"                                                                ",
"            . + @ # $                         % & * =           ",
"            - ; > , '                         ) ! ~ { ]         ",
"            ^ / ( _ '                         ) : < [ }         ",
"            | 1 2 3 '                         4 5 6 7 8         ",
"          9 0 a b c '                         ) d e f g h       ",
"          i j k l m n                         % o p q r s       ",
"          t u v w x n                         % y z A B C       ",
"          D E F G H n                         % I J K L M       ",
"          N O P Q R S                         T U V W X Y       ",
"          Z `  ...+.@.                        #.$.%.&.*.=.      ",
"          -.;.>.,.'.).                        !.~.{.].^./.      ",
"          (._.:.<.[.}.                        |.1.2.3.4.5.      ",
"          6.6.7.8.9.0.                        a.b.c.d.e.f.      ",
"          g.h.i.j.k.l.                        m.n.o.p.q.r.      ",
"          s.t.u.v.w.x.                        y.z.A.B.C.D.      ",
"          s.E.F.G.H.I.                        J.K.L.M.N.O.      ",
"          s.P.Q.R.S.T.                        U.V.W.X.Y.Z.      ",
"          `.`. +.+++@+                        #+$+%+&+*+=+      ",
"          -+;+>+,+'+)+                        !+~+{+d.@ ]+      ",
"          -+^+/+(+_+:+                        <+[+}+|+1+2+      ",
"          3+4+5+6+7+8+                        9+0+a+b+c+d+      ",
"          e+f+g+h+i+j+                        k+l+m+n+o+p+      ",
"          q+r+s+t+u+v+                        w+x+y+z+A+B+      ",
"          C+D+E+F+G+H+                        I+J+K+L+M+N+      ",
"          O+P+Q+R+S+T+                        U+V+W+X+Q.Y+      ",
"          Z+`+ @.@+@@@                        #@$@%@&@*@=@      ",
"          -@;@>@,@'@)@                          !@~@{@]@^@      ",
"          /@(@_@:@<@                            [@}@|@1@2@      ",
"          3@4@5@6@7@                            8@9@0@a@b@      ",
"          c@d@e@f@                                g@h@i@j@      ",
"          k@l@m@                                    n@o@p@      "};
