/* XPM */
static char *_7ab4ea7df4740909fd537fd34c2d815OpuDBunKxPlblEtT[] = {
/* columns rows colors chars-per-pixel */
"64 32 108 2 ",
"   c None",
".  c #D72300",
"X  c #D72600",
"o  c #D82700",
"O  c #D82800",
"+  c #DA2F03",
"@  c #DA2F04",
"#  c #DA3004",
"$  c #DC3305",
"%  c #DD3707",
"&  c #DE3A07",
"*  c #DD3708",
"=  c #DD3808",
"-  c #DF3D0A",
";  c #E03F0C",
":  c #E0420D",
">  c #E1450F",
",  c #E34A11",
"<  c #E44E13",
"1  c #E65215",
"2  c #E65517",
"3  c #E85714",
"4  c #E75718",
"5  c #E85A18",
"6  c #E95C1A",
"7  c #EB631E",
"8  c #ED661C",
"9  c #E95F21",
"0  c #EC6720",
"q  c #ED6921",
"w  c #EE6C22",
"e  c #EF6F24",
"r  c #EF7024",
"t  c #F07125",
"y  c #F17527",
"u  c #F27826",
"i  c #F27929",
"p  c #F37D2B",
"a  c #F47E28",
"s  c #F47F2C",
"d  c #F5802A",
"f  c #F4812C",
"g  c #F7852C",
"h  c #F98A2C",
"j  c #F78730",
"k  c #F78A31",
"l  c #F88B31",
"z  c #F88C32",
"x  c #FB9231",
"c  c #FC9633",
"v  c #FA9134",
"b  c #FB9436",
"n  c #FC9737",
"m  c #FF9A31",
"M  c #FD9A36",
"N  c #FC9738",
"B  c #FC9838",
"V  c #FF9E38",
"C  c #FC9B3D",
"Z  c #FD9D3D",
"A  c #FFA03C",
"S  c #FA9741",
"D  c #F89746",
"F  c #FC9D40",
"G  c #FC9E45",
"H  c #F2955F",
"J  c #F59859",
"K  c #FDA246",
"L  c #FCA148",
"P  c #FDA54B",
"I  c #FDA54D",
"U  c #FDA650",
"Y  c #FCA756",
"T  c #FCA856",
"R  c #FCAC60",
"E  c #FEB466",
"W  c #FCB169",
"Q  c #FDB469",
"!  c #FCB46D",
"~  c #FCB570",
"^  c #FDBA76",
"/  c #FCB979",
"(  c #FDBE7E",
")  c #FCBE84",
"_  c #FDC081",
"`  c #FCCB9B",
"'  c #FCCB9C",
"]  c #FCCC9E",
"[  c #FBCAA0",
"{  c #FBCCA5",
"}  c #FCD3AB",
"|  c #FCD5AF",
" . c #FCD7B4",
".. c #FCD9B7",
"X. c #FCD9B8",
"o. c #FCDDBD",
"O. c #FCDEC2",
"+. c #FCE1C8",
"@. c #FCE5D0",
"#. c #FCE9D7",
"$. c #FCECDD",
"%. c #FCEFE2",
"&. c #FCF1E6",
"*. c #FCF2E9",
"=. c #FCF6F1",
"-. c #FCF9F7",
";. c #FCFBFA",
":. c #FCFFFF",
/* pixels */
"                                                                                                                                ",
"                                                                                                                                ",
"          O O           O O                                                                                                     ",
"          O O             O                                                                         O O           O O           ",
"          O O               O O         O       B                                                   O             O O           ",
"          .                 O O O       O X   y v q                           B       O         O O               O O           ",
"                    O O     O O O O         O %   # O                       q v y   X O       O O O                 .           ",
"                    O O O O O O O O O       O X   X O                     O #   % O         O O O O     O O                     ",
"          B b       O O O O O O O O O O     O O   O O                     O X   X O       O O O O O O O O O                     ",
"            q       O O O O O O O o X X o O O O                           O O   O O     O O O O O O O O O O       b B           ",
"              O O   O O O O O O O O + + O O O                                   O O O o X X o O O O O O O O       q             ",
"              O O o     X O O o o - 7 2 + . O       * y                           O O O + + O O O O O O O O   O O               ",
"      O O     O O O     # O O o X > i e - + O o   . % 0 z               y *       O . + 2 7 - o o O O X     o O O               ",
"      O O O O O X + 7 l , O o o X # , 7 w 1 + X O X + : 1             z 0 % .   o O + - e i > X o O O #     O O O     O O       ",
"      O O O O O X + 7 i , o X + % $ O 1 k w # X O O O O o             1 : + X O X + 1 w 7 , # X o o O , l 7 + X O O O O O       ",
"  O O   O O O O o O - > $ X X = 0 7 $ 1 l w + . O O O o X             o O O O O X # w k 1 O $ % + X o , i 7 + X O O O O O       ",
"  O O     O O O O O X O = - + : f i = < k i > # O o O O O             X o O O O . + w l 1 $ 7 0 = X X $ > - O o O O O O   O O   ",
"  O O     O O O O O . @ 7 t - ; f i = , l b p 1 O X O O O             O O O o O # > i k < = i f : + - = O X O O O O O     O O   ",
"  O O   O O O O X O = < q r 2 5 g d 2 7 z A B y , $ O o O             O O O X O 1 p b l , = i f ; - t 7 @ . O O O O O     O O   ",
"  O O O O O O O X + 7 i 2 > w l b v k l b B B v s < O     O O         O o O $ , y B A z 7 2 d g 5 2 r q < = O X O O O O   O O   ",
"  O O O O O X o = 2 f v 8 3 d P ~ ! K M c d t j v 5 O .   O O     O O     O < s v B B b l k v b l w > 2 i 7 + X O O O O O O O   ",
"  O O O O O X + 5 k b N v z x R O.X.T M B w : q z 5 O X O O O     O O   . O 5 v j t d c M K ! ~ P d 3 8 v f 2 = o X O O O O O   ",
"  O O O o O = 4 p B m C ~ ( L R #.+.Y U ) H 9 u v 6 O X O O O     O O O X O 5 z q : w B M T X.O.R x z v N b k 5 + X O O O O O   ",
"      O X O 2 k n B n Y ..@.~ W @.+.R / @.[ S x l 2 O X O O O     O O O X O 6 v u 9 H ) U Y +.#.R L ( ~ C m B p 4 = O o O O O   ",
"      O X O 6 n V F ~ } &.=...| &.%.} ' ] ^ F a 6 - O o O O       O O O X O 2 l x S [ @./ R +.@.W ~ @...Y n B n k 2 O X O       ",
"      O X O 2 k c G ` &.;.;.-.-.;.:.-. .Y B b 7 # o O O O           O O o O - 6 a F ^ ] ' } %.&.| ..=.&.} ~ F V n 6 O X O       ",
"        X O = 4 u Z Q ] $.:.:.:.:.:.:.o.I m n 7 O . O O O             O O O o # 7 b B Y  .-.:.;.-.-.;.;.&.` G c k 2 O X O       ",
"          O X + 5 k x I } &.*.&.&.*.&.{ D h g 5 + X O O O             O O O . O 7 n m I o.:.:.:.:.:.:.$.] Q Z u 4 = O X         ",
"          O X o = 2 u Z E _ _ _ _ _ _ J 9 < < = O o O O               O O O X + 5 g h D { &.*.&.&.*.&.} I x k 5 + X O           ",
"          O O O X + 6 f g g g g g g g 7 # X o O O O O                   O O o O = < < 9 J _ _ _ _ _ _ E Z u 2 = o X O           ",
"                X O = > > > > > > > > & O .                               O O O O o X # 7 g g g g g g g f 6 + X O O O           ",
"                  O X X X X X X X X X X O O                                         . O & > > > > > > > > = O X                 "
};
