/* XPM */
static char *_c9d45f7e0bb45d1d1201aee0ec99589beyW9oejR1Wqb9VQ[] = {
/* columns rows colors chars-per-pixel */
"32 32 34 1 ",
"  c #3E2B1F",
". c #372821",
"X c #3C2A21",
"o c #432D1F",
"O c #4D321F",
"+ c #52351F",
"@ c #58371F",
"# c #5C3A1F",
"$ c #643E1F",
"% c #442E21",
"& c #482F21",
"* c #473021",
"= c #4C3221",
"- c #533621",
"; c #583721",
": c #573821",
"> c #593920",
", c #5D3B22",
"< c #5F3C21",
"1 c #603D20",
"2 c #643F22",
"3 c #67401F",
"4 c #6A411E",
"5 c #6C421F",
"6 c #6E441F",
"7 c #73461F",
"8 c #75471F",
"9 c #76481F",
"0 c #644022",
"q c #694322",
"w c #6C4320",
"e c #6B4422",
"r c #6D4421",
"t c #704620",
/* pixels */
"1>:*:>=:q0>%-qqqq:tq0*,:1>>>X,$1",
"0*488tw:&=1qX2,*&=rq,qq<--tq*0qq",
"-t*1qqq9>qqq>X%t2=qq,10#q1qq=&=>",
"1q*o:1<:=qqq0%rqro-:&&*tq--1 48$",
"==&q77t#X,>--=q0q1Xrr<%tq-X+7rqt",
"r:>qqqqr:7qrqX=*-0@qqq=&=+,9qqqq",
"q1%-10,-$qqqq-$wqr=00-X1=q0-0qqq",
"&=q>=>:<<&0qq<:qqqq:-%1>>=1**>::",
"0::,%,qqr1X*-:=1qq,>tq-:%>>,,ttt",
"0:4t$-0qq:+7trq@&1=rqqq01:0O9q10",
"=:q0q>=,-&qq1-=+;%&--:<=1*++o-:=",
"7--qq>$r75=0,7rqr@r6O,>$&8qq>4qq",
"qq*00=2qqqr%tqqq<$qqq-rq:1qq:O7r",
",<-*:&rqqq0-::qq>q1qq-qqq:-0X0:-",
">$&wqq-qqq>*q$-:=$-X: 0,>&==0#1>",
"<r>tqq>>q<=tqr,1tq0*8rrqO7q0<-q>",
"<0>10q:*-%-0qq1211q>4qqq>:1>4>:*",
"#rq-*&&Xqt,=qqq--<-&qqq<=::oqqq9",
":4qqq%q*0qq==<1=<qq&101:rq1@qq0q",
">-q0:1*&-q<Orq0.<t0&r,@20qrO--*:",
"@:*X:*q0=1-4qq>%0:=:eqq%=>,O7e6&",
",q=q,<q:011->=$0=-0-qqq*5w>:rqq:",
",q-=1:q:qqrr-4rrerq<%*&3e0<&qqq>",
":q10*%-%<q0q:>qqqq1-44&tq0=+=:>*",
"<q-rrrrt+=:,>&12,:&2qq1:q0>tt329",
"*>%21qqq=9qqqt&=>r,00qq<&X-0qqqq",
"3::>-q:-:qqqq0=rqq1%-,>>&rr-000:",
"tr=qq*-q#-*>11=0qqq2-tt=te<<-->=",
"qqX--*qqqq-<,$r>>>*>rqq:r=0=qe0:",
"q>Oqq1=-1;-rq0qe:q<==><:X=0-w0-q",
"1%>=*:2>X1$*X*:X%0>#71>qqq-X,,<q",
"-,q>rrq+qqq1:rr73+:00>#2q01>%X%:"
};
