/* XPM */
static char * mm_pap_xpm[] = {
"32 32 6 1",
" 	c None",
".	c #030303",
"+	c #FFFFFF",
"@	c #F9F9FA",
"#	c #000000",
"$	c #020F02",
"                                ",
"          ...........           ",
"         ..++++++++++...        ",
"       ...++++++++++++@..       ",
"      ..++++++++++++++++..      ",
"     ..+++++++.....++++++..     ",
"    ..+++..............+++..    ",
"   ..++++..............++++..   ",
"  ..+++++..............+++++..  ",
"  .@+++++..............++++++.  ",
"  .++++++++++++...+++++++++++.. ",
" ..++++++++++..+++..++++++++++. ",
" .+++++++++++.+++++.++++++++++. ",
" .++++++++++.+++++++.+++++++++. ",
" .++++++++++.+++++++.++++++++++#",
" .++++....++.+++++++.++....+++@#",
" .++++.....++.+++++.++.....++++#",
" .+++++.....++.+++.++.....+++++#",
" .++++++.................++++++#",
" .+++++++...............++++++. ",
" .+++++++...............++++++. ",
" ..++++++...............++++++. ",
"  .++++++...............+++++.. ",
"  ..++++...+++++++++++...++++.  ",
"   ..+++..+++++++++++++..+++..  ",
"    .+++.+++++++++++++++.++..   ",
"    ..++++++++++++++++++++.$    ",
"     ..++++++++++++++++++.$     ",
"      ..++++++++++++++++..      ",
"       ...++++++++++++...       ",
"          ....+++++....         ",
"              ....$             "};
