/* XPM */
static char * wall_xpm[] = {
"32 32 811 2",
"  	c None",
". 	c #583E36",
"+ 	c #574039",
"@ 	c #553F39",
"# 	c #564038",
"$ 	c #564039",
"% 	c #574239",
"& 	c #57423A",
"* 	c #59433B",
"= 	c #58443B",
"- 	c #58443C",
"; 	c #59443B",
"> 	c #58453C",
", 	c #58453B",
"' 	c #56423A",
") 	c #56413A",
"! 	c #57413A",
"~ 	c #554039",
"{ 	c #533F38",
"] 	c #543E37",
"^ 	c #756358",
"/ 	c #9E9E95",
"( 	c #99968A",
"_ 	c #98968A",
": 	c #969288",
"< 	c #949085",
"[ 	c #8D8A7C",
"} 	c #8E8B7E",
"| 	c #8D8A7D",
"1 	c #8C897D",
"2 	c #8B897D",
"3 	c #8A887C",
"4 	c #8B897C",
"5 	c #8A887B",
"6 	c #8A897B",
"7 	c #8A877B",
"8 	c #89877B",
"9 	c #89877A",
"0 	c #919086",
"a 	c #6A594E",
"b 	c #513833",
"c 	c #888177",
"d 	c #97968A",
"e 	c #959386",
"f 	c #969286",
"g 	c #969386",
"h 	c #949184",
"i 	c #908B7F",
"j 	c #8F8C7E",
"k 	c #8F8B7E",
"l 	c #908C7E",
"m 	c #8D8A7E",
"n 	c #8E8A7C",
"o 	c #8C8A7D",
"p 	c #8B897B",
"q 	c #8A887A",
"r 	c #8F8D83",
"s 	c #8E8D82",
"t 	c #8F8D81",
"u 	c #8E8C81",
"v 	c #7C746A",
"w 	c #4A3636",
"x 	c #653A1F",
"y 	c #A0A196",
"z 	c #928F81",
"A 	c #928F80",
"B 	c #8D897C",
"C 	c #8E8A7D",
"D 	c #8C897B",
"E 	c #8C887B",
"F 	c #8A8779",
"G 	c #888779",
"H 	c #908F85",
"I 	c #918E85",
"J 	c #908E84",
"K 	c #918E84",
"L 	c #908D85",
"M 	c #878477",
"N 	c #94938A",
"O 	c #59311B",
"P 	c #683A1A",
"Q 	c #A4A499",
"R 	c #949080",
"S 	c #959082",
"T 	c #949081",
"U 	c #989485",
"V 	c #827E72",
"W 	c #654B3F",
"X 	c #685247",
"Y 	c #695447",
"Z 	c #695548",
"` 	c #685649",
" .	c #6D5B4F",
"..	c #6C5A4E",
"+.	c #6A594D",
"@.	c #69594C",
"#.	c #68574D",
"$.	c #69584C",
"%.	c #69564C",
"&.	c #69574C",
"*.	c #67554A",
"=.	c #675448",
"-.	c #655247",
";.	c #7F7E74",
">.	c #8F8E81",
",.	c #8B887C",
"'.	c #8A877C",
").	c #97978D",
"!.	c #562706",
"~.	c #6C3D1B",
"{.	c #A6A49B",
"].	c #969181",
"^.	c #979382",
"/.	c #989382",
"(.	c #989484",
"_.	c #6C6258",
":.	c #643F2D",
"<.	c #7E6B5D",
"[.	c #7B6859",
"}.	c #817669",
"|.	c #807566",
"1.	c #7F7467",
"2.	c #7E7366",
"3.	c #7E7266",
"4.	c #7D7165",
"5.	c #7C7165",
"6.	c #7B7165",
"7.	c #716255",
"8.	c #756355",
"9.	c #736355",
"0.	c #746253",
"a.	c #5C3A2C",
"b.	c #68645C",
"c.	c #908E81",
"d.	c #8C8A7C",
"e.	c #98978E",
"f.	c #582908",
"g.	c #6D3E1B",
"h.	c #A9A79E",
"i.	c #999584",
"j.	c #9B9886",
"k.	c #5A2000",
"l.	c #837364",
"m.	c #857364",
"n.	c #877D70",
"o.	c #857B6E",
"p.	c #847A6E",
"q.	c #847A6D",
"r.	c #827A6D",
"s.	c #82796C",
"t.	c #847C6F",
"u.	c #837C6F",
"v.	c #81776A",
"w.	c #80766B",
"x.	c #80766A",
"y.	c #7E776B",
"z.	c #7D766A",
"A.	c #7C6D5F",
"B.	c #7D7164",
"C.	c #541D00",
"D.	c #929488",
"E.	c #A09E95",
"F.	c #582907",
"G.	c #6D3F1C",
"H.	c #ADACA3",
"I.	c #989682",
"J.	c #9A9884",
"K.	c #9A9784",
"L.	c #9C9987",
"M.	c #5B2200",
"N.	c #7F7165",
"O.	c #8C8373",
"P.	c #887D6E",
"Q.	c #887C6E",
"R.	c #877C6D",
"S.	c #888270",
"T.	c #888170",
"U.	c #86806E",
"V.	c #888273",
"W.	c #878171",
"X.	c #83796C",
"Y.	c #82786C",
"Z.	c #82786B",
"`.	c #83796B",
" +	c #837A6D",
".+	c #541C00",
"++	c #959688",
"@+	c #8E8C7C",
"#+	c #8E8B7C",
"$+	c #8D8A7B",
"%+	c #A4A299",
"&+	c #572B07",
"*+	c #6D3E18",
"=+	c #9B9784",
"-+	c #9B9885",
";+	c #9D9987",
">+	c #9E9B89",
",+	c #5B1D00",
"'+	c #908778",
")+	c #908978",
"!+	c #918778",
"~+	c #897F70",
"{+	c #8B8473",
"]+	c #8C8474",
"^+	c #8A8374",
"/+	c #898273",
"(+	c #898274",
"_+	c #878272",
":+	c #868070",
"<+	c #857A6C",
"[+	c #837A6C",
"}+	c #847B6D",
"|+	c #837A6F",
"1+	c #561C00",
"2+	c #96968B",
"3+	c #8F8B7D",
"4+	c #8E8C7D",
"5+	c #A4A29A",
"6+	c #592B09",
"7+	c #6E3F1C",
"8+	c #B2B0A6",
"9+	c #9D9986",
"0+	c #9E9987",
"a+	c #A09C8A",
"b+	c #5C1D00",
"c+	c #958F80",
"d+	c #928B7B",
"e+	c #928A7A",
"f+	c #918878",
"g+	c #8E8778",
"h+	c #8F8677",
"i+	c #8F8675",
"j+	c #8F8577",
"k+	c #8E8577",
"l+	c #8D8475",
"m+	c #8B8475",
"n+	c #898374",
"o+	c #898074",
"p+	c #877E6E",
"q+	c #867C6E",
"r+	c #857C6F",
"s+	c #827C6D",
"t+	c #837B6E",
"u+	c #96978B",
"v+	c #908D7F",
"w+	c #8E8B7B",
"x+	c #592C0B",
"y+	c #6F3E18",
"z+	c #B6B4AB",
"A+	c #9D9885",
"B+	c #9E9988",
"C+	c #9F9A88",
"D+	c #A19D8A",
"E+	c #5C1E00",
"F+	c #9A9587",
"G+	c #948B7C",
"H+	c #938B7B",
"I+	c #938B7A",
"J+	c #928979",
"K+	c #92897A",
"L+	c #90897A",
"M+	c #918879",
"N+	c #908779",
"O+	c #908777",
"P+	c #8D8478",
"Q+	c #8C8476",
"R+	c #8A8173",
"S+	c #8A8073",
"T+	c #847D6E",
"U+	c #847B6E",
"V+	c #847D71",
"W+	c #551B00",
"X+	c #9C9C8F",
"Y+	c #938E7D",
"Z+	c #908D7D",
"`+	c #8F8B7C",
" @	c #ABA8A0",
".@	c #6C3A11",
"+@	c #A09B88",
"@@	c #A29D8B",
"#@	c #570F00",
"$@	c #9C9A8D",
"%@	c #948C7D",
"&@	c #958C7B",
"*@	c #978F7E",
"=@	c #86796B",
"-@	c #867B6C",
";@	c #978E7E",
">@	c #938C7C",
",@	c #908878",
"'@	c #8F8878",
")@	c #8F8779",
"!@	c #8D8477",
"~@	c #8C8477",
"{@	c #8B8376",
"]@	c #897F74",
"^@	c #847B6C",
"/@	c #89847E",
"(@	c #510B00",
"_@	c #A2A198",
":@	c #938F7F",
"<@	c #938E7F",
"[@	c #ACA9A2",
"}@	c #6D3A13",
"|@	c #B7B6AD",
"1@	c #A5A092",
"2@	c #A5A093",
"3@	c #9F9988",
"4@	c #A09A89",
"5@	c #A29C8B",
"6@	c #745C4E",
"7@	c #8F887A",
"8@	c #8F8476",
"9@	c #766457",
"0@	c #78665A",
"a@	c #776659",
"b@	c #77675A",
"c@	c #76665A",
"d@	c #756659",
"e@	c #8D8376",
"f@	c #887F74",
"g@	c #877F73",
"h@	c #877E72",
"i@	c #857E70",
"j@	c #857B72",
"k@	c #857C70",
"l@	c #837B71",
"m@	c #716058",
"n@	c #9E9E94",
"o@	c #9B968C",
"p@	c #938F81",
"q@	c #AEAAA2",
"r@	c #5A2C08",
"s@	c #6B3608",
"t@	c #BFBCB4",
"u@	c #A19D8E",
"v@	c #A6A093",
"w@	c #9E9886",
"x@	c #A09A88",
"y@	c #A09B89",
"z@	c #857768",
"A@	c #867868",
"B@	c #857868",
"C@	c #857667",
"D@	c #847667",
"E@	c #837666",
"F@	c #827566",
"G@	c #827565",
"H@	c #817565",
"I@	c #817665",
"J@	c #817564",
"K@	c #7F7364",
"L@	c #807364",
"M@	c #81766C",
"N@	c #9E9B91",
"O@	c #979386",
"P@	c #989387",
"Q@	c #939080",
"R@	c #908C7D",
"S@	c #B1ACA6",
"T@	c #592E0A",
"U@	c #6A3714",
"V@	c #999787",
"W@	c #B4AEA3",
"X@	c #A29D8D",
"Y@	c #9F9987",
"Z@	c #9E9887",
"`@	c #9D9985",
" #	c #9D9787",
".#	c #9B9785",
"+#	c #9B9684",
"@#	c #9A9684",
"##	c #9A9685",
"$#	c #999484",
"%#	c #999583",
"&#	c #989383",
"*#	c #989583",
"=#	c #989483",
"-#	c #969382",
";#	c #989684",
">#	c #969282",
",#	c #959180",
"'#	c #949281",
")#	c #928E81",
"!#	c #969084",
"~#	c #A19E94",
"{#	c #6E6757",
"]#	c #522201",
"^#	c #663311",
"/#	c #908D7E",
"(#	c #8A8473",
"_#	c #AAA498",
":#	c #ACA799",
"<#	c #A9A395",
"[#	c #A8A295",
"}#	c #A8A195",
"|#	c #A7A193",
"1#	c #A6A092",
"2#	c #A4A193",
"3#	c #A09D8F",
"4#	c #A29D8F",
"5#	c #A09C8E",
"6#	c #A19B8E",
"7#	c #9E9A8D",
"8#	c #9F9A8E",
"9#	c #9D9A8D",
"0#	c #9D9A8C",
"a#	c #9D998C",
"b#	c #9F9B8F",
"c#	c #958E85",
"d#	c #685F4C",
"e#	c #6D6554",
"f#	c #512001",
"g#	c #572809",
"h#	c #807E73",
"i#	c #7C776C",
"j#	c #9E9A92",
"k#	c #7A746A",
"l#	c #858176",
"m#	c #837E74",
"n#	c #827D72",
"o#	c #827D73",
"p#	c #7C766C",
"q#	c #7D776D",
"r#	c #7B756B",
"s#	c #7C756C",
"t#	c #7C756B",
"u#	c #7B756A",
"v#	c #7B736A",
"w#	c #857F77",
"x#	c #868277",
"y#	c #858178",
"z#	c #838076",
"A#	c #797269",
"B#	c #79736A",
"C#	c #7A746B",
"D#	c #79746A",
"E#	c #79746B",
"F#	c #7B746A",
"G#	c #817F75",
"H#	c #655C4F",
"I#	c #675F51",
"J#	c #4B1B00",
"K#	c #502000",
"L#	c #84857C",
"M#	c #868178",
"N#	c #6A6357",
"O#	c #6D665C",
"P#	c #736F64",
"Q#	c #736E63",
"R#	c #6D665B",
"S#	c #6E685D",
"T#	c #6F675D",
"U#	c #6F685D",
"V#	c #6F675C",
"W#	c #6E665C",
"X#	c #6E675C",
"Y#	c #6E665B",
"Z#	c #6E675D",
"`#	c #6E685C",
" $	c #6F665C",
".$	c #6E655C",
"+$	c #6E655B",
"@$	c #6D645B",
"#$	c #6C655B",
"$$	c #6D655C",
"%$	c #6B625B",
"&$	c #7C7870",
"*$	c #747066",
"=$	c #461200",
"-$	c #470F00",
";$	c #8D8F89",
">$	c #6B6359",
",$	c #6C655C",
"'$	c #6C655A",
")$	c #6B645C",
"!$	c #6D655B",
"~$	c #6E6A60",
"{$	c #716B61",
"]$	c #716B63",
"^$	c #706D62",
"/$	c #716C62",
"($	c #706C62",
"_$	c #706C63",
":$	c #716C63",
"<$	c #706B60",
"[$	c #6C665A",
"}$	c #706A5E",
"|$	c #70695D",
"1$	c #6B6358",
"2$	c #6A6258",
"3$	c #686158",
"4$	c #888881",
"5$	c #440C00",
"6$	c #461000",
"7$	c #878881",
"8$	c #686156",
"9$	c #6A6359",
"0$	c #6A645A",
"a$	c #6B6459",
"b$	c #6C665D",
"c$	c #63584F",
"d$	c #503629",
"e$	c #52392B",
"f$	c #574134",
"g$	c #553F31",
"h$	c #564033",
"i$	c #553F33",
"j$	c #553E33",
"k$	c #553F34",
"l$	c #563E32",
"m$	c #553E32",
"n$	c #543D30",
"o$	c #543C30",
"p$	c #686157",
"q$	c #716B5F",
"r$	c #6A5F56",
"s$	c #6A6257",
"t$	c #696155",
"u$	c #7D7C72",
"v$	c #450F00",
"w$	c #471100",
"x$	c #83857D",
"y$	c #666056",
"z$	c #676358",
"A$	c #6B655A",
"B$	c #594740",
"C$	c #554238",
"D$	c #56473C",
"E$	c #625549",
"F$	c #62584B",
"G$	c #64584B",
"H$	c #62574B",
"I$	c #64574B",
"J$	c #63594D",
"K$	c #64574D",
"L$	c #63574C",
"M$	c #62574D",
"N$	c #63594E",
"O$	c #64584D",
"P$	c #63584D",
"Q$	c #63564B",
"R$	c #61564A",
"S$	c #61574A",
"T$	c #594B3E",
"U$	c #5B4D44",
"V$	c #6D6B61",
"W$	c #676055",
"X$	c #686054",
"Y$	c #665F54",
"Z$	c #76736A",
"`$	c #451100",
" %	c #808078",
".%	c #666055",
"+%	c #676157",
"@%	c #481B00",
"#%	c #5A4D42",
"$%	c #62584A",
"%%	c #64574A",
"&%	c #63574B",
"*%	c #63574A",
"=%	c #635849",
"-%	c #62574C",
";%	c #64594D",
">%	c #63584B",
",%	c #615549",
"'%	c #615648",
")%	c #60574A",
"!%	c #615749",
"~%	c #61584B",
"{%	c #481E02",
"]%	c #69635B",
"^%	c #665E53",
"/%	c #655D53",
"(%	c #716E66",
"_%	c #441200",
":%	c #471000",
"<%	c #7C7E74",
"[%	c #665E56",
"}%	c #686057",
"|%	c #686056",
"1%	c #6B6258",
"2%	c #491F04",
"3%	c #5E5348",
"4%	c #62574A",
"5%	c #63564A",
"6%	c #625749",
"7%	c #615649",
"8%	c #61574B",
"9%	c #605749",
"0%	c #5F5347",
"a%	c #5E5146",
"b%	c #5E5045",
"c%	c #5F5446",
"d%	c #605848",
"e%	c #5F5749",
"f%	c #5F5549",
"g%	c #461E02",
"h%	c #696358",
"i%	c #655D51",
"j%	c #645D51",
"k%	c #645E50",
"l%	c #716D65",
"m%	c #431200",
"n%	c #797A71",
"o%	c #645D54",
"p%	c #655D52",
"q%	c #676054",
"r%	c #492208",
"s%	c #5D5347",
"t%	c #5C4F42",
"u%	c #605548",
"v%	c #5F5548",
"w%	c #605648",
"x%	c #605447",
"y%	c #5E5448",
"z%	c #5C5044",
"A%	c #5D5043",
"B%	c #5D5044",
"C%	c #5D4F43",
"D%	c #5D4F44",
"E%	c #5E5144",
"F%	c #451F04",
"G%	c #655F54",
"H%	c #625A4E",
"I%	c #635B4E",
"J%	c #635A4E",
"K%	c #6F6C64",
"L%	c #421100",
"M%	c #471200",
"N%	c #73736D",
"O%	c #655D50",
"P%	c #645D52",
"Q%	c #665F53",
"R%	c #451C00",
"S%	c #5E5447",
"T%	c #5B5042",
"U%	c #5B4F40",
"V%	c #5F5346",
"W%	c #605549",
"X%	c #605348",
"Y%	c #605347",
"Z%	c #5F5247",
"`%	c #5F5248",
" &	c #5C5042",
".&	c #5B5041",
"+&	c #5C4E42",
"@&	c #5D4F42",
"#&	c #5C5043",
"$&	c #451D00",
"%&	c #635D53",
"&&	c #60594D",
"*&	c #61594C",
"=&	c #60574C",
"-&	c #6F6A62",
";&	c #431100",
">&	c #717067",
",&	c #625C4E",
"'&	c #645C4F",
")&	c #635950",
"!&	c #645B52",
"~&	c #461A00",
"{&	c #5B5344",
"]&	c #5A4E3E",
"^&	c #5A4D41",
"/&	c #5C4F40",
"(&	c #5E5247",
"_&	c #5C4F43",
":&	c #5B4F41",
"<&	c #5A4E41",
"[&	c #584A3E",
"}&	c #574B3D",
"|&	c #574A3E",
"1&	c #574A3D",
"2&	c #584B3E",
"3&	c #431A00",
"4&	c #605B4F",
"5&	c #5E564A",
"6&	c #5F564A",
"7&	c #6E6A61",
"8&	c #421000",
"9&	c #706E66",
"0&	c #655E54",
"a&	c #61574C",
"b&	c #61594E",
"c&	c #615A4F",
"d&	c #5C4E43",
"e&	c #513F31",
"f&	c #5A4C40",
"g&	c #594B3F",
"h&	c #594C40",
"i&	c #5E5145",
"j&	c #5D5144",
"k&	c #574D3F",
"l&	c #594D3E",
"m&	c #574C3E",
"n&	c #574B3E",
"o&	c #564B3D",
"p&	c #513F30",
"q&	c #534539",
"r&	c #5D564A",
"s&	c #5D5447",
"t&	c #5C5547",
"u&	c #5C5348",
"v&	c #6F6A5F",
"w&	c #6F6E64",
"x&	c #635D52",
"y&	c #5F564D",
"z&	c #5E574B",
"A&	c #5F564B",
"B&	c #60584C",
"C&	c #736D62",
"D&	c #4B3327",
"E&	c #4D3528",
"F&	c #4D3428",
"G&	c #4E362A",
"H&	c #4D362A",
"I&	c #4D3529",
"J&	c #4D3629",
"K&	c #4C3427",
"L&	c #4C3327",
"M&	c #4B3326",
"N&	c #4B3226",
"O&	c #4A3327",
"P&	c #4A3226",
"Q&	c #493024",
"R&	c #5A5246",
"S&	c #5C5347",
"T&	c #5B5245",
"U&	c #6B685C",
"V&	c #441000",
"W&	c #6E6E65",
"X&	c #665F55",
"Y&	c #656054",
"Z&	c #60594F",
"`&	c #5C5548",
" *	c #676154",
".*	c #665F52",
"+*	c #655F52",
"@*	c #665E51",
"#*	c #696356",
"$*	c #676254",
"%*	c #696253",
"&*	c #625B4D",
"**	c #635C4D",
"=*	c #595143",
"-*	c #595145",
";*	c #5A5245",
">*	c #585145",
",*	c #69655B",
"'*	c #410F00",
")*	c #53423C",
"!*	c #6A6B63",
"~*	c #645F55",
"{*	c #645E55",
"]*	c #5A5447",
"^*	c #5B5448",
"/*	c #5A5446",
"(*	c #5C5649",
"_*	c #5C5549",
":*	c #5B5549",
"<*	c #615D51",
"[*	c #605A4F",
"}*	c #605B50",
"|*	c #585042",
"1*	c #585044",
"2*	c #585143",
"3*	c #595243",
"4*	c #595244",
"5*	c #626156",
"6*	c #4F3D35",
"7*	c #3A2A2B",
"8*	c #45302F",
"9*	c #5D574E",
"0*	c #666459",
"a*	c #5A5347",
"b*	c #5B5449",
"c*	c #5C5447",
"d*	c #595448",
"e*	c #595446",
"f*	c #585245",
"g*	c #585146",
"h*	c #585144",
"i*	c #5A5144",
"j*	c #595144",
"k*	c #595044",
"l*	c #595043",
"m*	c #585043",
"n*	c #3B1E1B",
"o*	c #372E30",
"p*	c #423E3E",
"q*	c #483E40",
"r*	c #554942",
"s*	c #4F3C33",
"t*	c #4F3E34",
"u*	c #4F3E33",
"v*	c #4F3C34",
"w*	c #4D3C32",
"x*	c #4E3D33",
"y*	c #4E3B33",
"z*	c #4D3B33",
"A*	c #4C3C32",
"B*	c #4D3A31",
"C*	c #4D3B30",
"D*	c #4C3A32",
"E*	c #4D3A30",
"F*	c #4C3A30",
"G*	c #4D3930",
"H*	c #52433B",
"I*	c #3A2522",
"J*	c #362A2A",
"        . + @ # $ % & * = - ; = > , , ' & ) ! ) ' ~ { ]         ",
"      ^ / ( ( _ : < [ } | | 1 2 3 4 4 5 6 5 6 7 7 8 9 0 a       ",
"  b c d e f g g h i j k l m n o | 4 p q r s t 5 8 8 5 5 u v w   ",
"x y z A z A z z B C B B B D E D F G H I J K L M 4 3 7 3 q 6 N O ",
"P Q R S S T U V W X Y Z `  ...+.@.#.$.%.&.*.=.-.;.>.p ,.'.8 ).!.",
"~.{.].^./.(._.:.<.[.}.|.1.2.3.3.4.5.6.6.7.8.9.0.a.b.c.E d.7 e.f.",
"g.h.^.i.i.j.k.l.m.n.o.o.p.q.r.s.t.u.v.w.x.y.z.A.B.C.D.4 d.5 E.F.",
"G.H.I.J.K.L.M.N.O.P.Q.R.o.S.T.U.V.W.u.x.X.Y.Z.`. +.+++@+#+$+%+&+",
"*+H.=+-+;+>+,+A '+)+!+~+~+{+]+^+/+(+_+:+<+[+}+s.|+1+2+3+4+n 5+6+",
"7+8+-+9+0+a+b+c+d+e+f+g+h+i+j+k+l+m+n+o+p+q+r+s+t+1+u+v+3+w+%+x+",
"y+z+A+B+C+D+E+F+G+H+I+J+K+L+M+N+O+h+P+Q+R+S+T+U+V+W+X+Y+Z+`+ @6+",
".@z+C+0++@@@#@$@%@&@*@=@-@;@>@d+,@'@)@!@~@{@]@^@/@(@_@:@<@Z+[@6+",
"}@|@1@2@3@4@5@6@7@8@9@0@a@b@c@d@e@f@g@h@i@j@k@l@m@n@o@:@p@v+q@r@",
"s@t@u@v@w@3@x@y@z@A@B@C@D@E@F@E@G@H@H@I@J@K@L@M@N@O@P@Q@p@R@S@T@",
"U@V@W@X@y@Y@Y@0+0+Z@`@ #.#+#@###$#%#&#*#=#-#;#>#>#,#'#)#!#~#{#]#",
"^#/#(#_#:#<#[#}#|#1#2#1@3#4#5#5#6#7#8#7#7#9#9#9#0#a#7#b#c#d#e#f#",
"g#h#i#j#k#l#m#n#o#o#p#q#r#s#t#u#v#w#x#y#z#A#B#C#D#E#C#F#G#H#I#J#",
"K#L#M#N#O#P#Q#R#O#S#T#U#V#V#W#X#Y#X#Z#X#`# $.$R#+$@$#$$$%$&$*$=$",
"-$;$>$,$'$)$$$!$~${$]$^$/$($($($_$:$(${${$<$<$<$[$}$|$1$2$3$4$5$",
"6$7$8$9$0$a$b$c$d$e$f$g$h$i$j$i$i$j$i$k$l$m$n$o$p$:$q$r$s$t$u$v$",
"w$x$y$z$1$A$B$C$D$E$F$G$H$I$J$K$L$M$N$O$P$Q$R$S$T$U$V$W$X$Y$Z$`$",
"-$ %.%+%2$'$@%#%$%F$%%&%*%=%$%-%;%>%$%,%'%)%!%S$~%{%]%^%^%/%(%_%",
":%<%[%}%|%1%2%3%)%~%4%5%6%R$5%7%8%9%0%a%b%c%d%e%f%g%h%i%j%k%l%m%",
"w$n%o%p%/%q%r%s%t%t%R$u%v%w%x%y%z%A%B%B%C%D%C%A%E%F%G%H%I%J%K%L%",
"M%N%O%i%P%Q%R%S%T%U%V%W%X%Y%Z%`% &t%.&C%+&t%t%@&#&$&%&&&*&=&-&;&",
"=$>&,&'&)&!&~&{&]&^&/&+&t%`%(&_&t%:&<&[&}&|&1&1&2&3&4&f%5&6&7&8&",
"=$9&0&a&b&c&d&e&f&g&h&i&B%j&A%z%<&k&l&m&n&}&}&o&p&q&r&s&t&u&v&8&",
"`$w&x&y&z&A&B&C&D&E&F&G&H&G&I&J&K&L&M&L&N&O&P&Q&H%R&s%S&S&T&U&8&",
"V&W&X&Y&b&Z&`&t& *.*+*+*@*#*$* * *%*q%Q%Q%&*&***=*=*R&-*;*>*,*'*",
"  )*!*~*{*~*]*`&`&`&^*/*]*r&(*_*:*_*<*[*}*|*1*2*=*3*4*R&-*5*6*7*",
"    8*9*0*a*b*^*^*c*d*/*e*a*R&f*g*3*>*h*i*h*j*k*l*l*m*(*R&n*o*p*",
"      q*r*s*t*t*u*v*s*w*x*y*z*A*A*B*C*D*E*E*F*F*F*F*G*H*I*J*    "};
