/* XPM */
static char *_0db953ff57a48a4df9293f977897307F2EQcKJLKu4BO9PH[] = {
/* columns rows colors chars-per-pixel */
"128 32 256 2 ",
"   c None",
".  c #040404",
"X  c #7A0505",
"o  c #B84300",
"O  c #FDFEFE",
"+  c #004203",
"@  c #007DA5",
"#  c #9D3333",
"$  c #014806",
"%  c #7D0B0B",
"&  c #F1F2F1",
"*  c gray98",
"=  c #E6F6F9",
"-  c #861515",
";  c #01590E",
":  c #F4F5F4",
">  c #821010",
",  c #C05700",
"<  c #BD4F01",
"1  c #0298B8",
"2  c #CF7C00",
"3  c #0182A8",
"4  c #BF5300",
"5  c #BB4A00",
"6  c #B84700",
"7  c #014C0A",
"8  c #760303",
"9  c #D28500",
"0  c #02540D",
"q  c #F7F7F8",
"w  c #F0FBFC",
"e  c #035D12",
"r  c #9B2E2E",
"t  c #E9EAE9",
"y  c #01500C",
"u  c #891C1C",
"i  c #CC7700",
"p  c #046817",
"a  c #036314",
"s  c #003C03",
"d  c #008CAF",
"f  c #04A6BF",
"g  c #05C0D8",
"h  c #8C2323",
"j  c #0193B6",
"k  c #C35A00",
"l  c #55322F",
"z  c #C76C02",
"x  c #0287AB",
"c  c #C97207",
"v  c #EDEEED",
"b  c #8F1919",
"n  c #942929",
"m  c #365A61",
"M  c #017C1E",
"N  c #03A0BC",
"B  c #48DAEA",
"V  c #C56506",
"C  c #C45F00",
"Z  c #008FB3",
"A  c #068424",
"S  c #04BAD1",
"D  c #151312",
"F  c #05ABCA",
"G  c #E4D8D7",
"H  c #016F18",
"J  c #DD7D00",
"K  c #3F7141",
"L  c #2C5F34",
"P  c #02B2CA",
"I  c #63B0C8",
"U  c #08C6DD",
"Y  c #EF9300",
"T  c #008D24",
"R  c #876037",
"E  c #A73B03",
"W  c #98E7EE",
"Q  c #06DEE9",
"!  c #E3E1E0",
"~  c #01D6E6",
"^  c #3F7A44",
"/  c #0C0B0B",
"(  c #C08686",
")  c #F1C601",
"_  c #81A384",
"`  c #DCF0F5",
"'  c #027415",
"]  c #DBBEBC",
"[  c #5E3C33",
"{  c #ED8A00",
"}  c #642020",
"|  c #F1B900",
" . c #8A0101",
".. c #02799B",
"X. c #D1F5F8",
"o. c #D96F00",
"O. c #44B74C",
"+. c #161E1D",
"@. c #673030",
"#. c #EF9900",
"$. c #B75A02",
"%. c #EE9F01",
"&. c #E4D1CD",
"*. c #BC8080",
"=. c #668D69",
"-. c #15511F",
";. c #8D2E2E",
":. c #00CEE2",
">. c #759C78",
",. c #9A4A06",
"<. c #291F1C",
"1. c #A74F01",
"2. c #741D1D",
"3. c #5ABCD0",
"4. c #1FB0CB",
"5. c #631515",
"6. c #A3D6E3",
"7. c #82C9DA",
"8. c #76C3D6",
"9. c #D0DFD3",
"0. c #BFD7C3",
"q. c #C8E9F0",
"w. c #D36804",
"e. c #DC7600",
"r. c #903535",
"t. c #436945",
"y. c #47E9F5",
"u. c #A33C3C",
"i. c #3FB1C9",
"p. c #059528",
"a. c #7E5532",
"s. c #EE8F03",
"d. c #A0BFA4",
"f. c #EAB100",
"g. c #1FA5BF",
"h. c #CCD9CE",
"j. c #75BCD0",
"k. c #9B0909",
"l. c #095E7A",
"z. c #269DBB",
"x. c #002F00",
"c. c #46D266",
"v. c #BD3838",
"b. c #F0A707",
"n. c #A74848",
"m. c #12A0CE",
"M. c #94DEE8",
"N. c #E8AA48",
"B. c #590000",
"V. c #A66237",
"C. c #B37676",
"Z. c #428047",
"A. c #A35353",
"S. c #3A5159",
"D. c #C88358",
"F. c #8AAC8E",
"G. c #E59F45",
"H. c #D36969",
"J. c #7BAB81",
"K. c #AD4302",
"L. c #C59393",
"P. c #1D3A3D",
"I. c #252C24",
"U. c #473625",
"Y. c #BB7638",
"T. c #9C5517",
"R. c #384F3B",
"E. c #B75202",
"W. c #E88304",
"Q. c #B86B6B",
"!. c #F0BA4F",
"~. c #44894A",
"^. c #E8C692",
"/. c #2BCADA",
"(. c #EFEBDB",
"). c #68E6EE",
"_. c #94CFDE",
"`. c #9B4B4B",
"'. c #6DDCE6",
"]. c #E2A444",
"[. c #5BCDDC",
"{. c #40E2EE",
"}. c #95AF97",
"|. c #CB4E4E",
" X c #2D6F36",
".X c #82B689",
"XX c #54835A",
"oX c #1F99A7",
"OX c #DDE8DF",
"+X c #8B4108",
"@X c #3C2828",
"#X c #A93232",
"$X c #1F90B2",
"%X c #EDE5E4",
"&X c #744E2E",
"*X c #BFCEC1",
"=X c #5AAC69",
"-X c #37BDD1",
";X c #3BCFDE",
":X c #44C55A",
">X c #D05D5D",
",X c #DAB4A4",
"<X c #A95F5F",
"1X c #AD1010",
"2X c #A8C7AB",
"3X c #2C7780",
"4X c #AC6C38",
"5X c #DE9C00",
"6X c #D79D6E",
"7X c #B8DFE9",
"8X c #B77070",
"9X c #984343",
"0X c #B2EAF1",
"qX c #B72A2A",
"wX c #E49B43",
"eX c #D37070",
"rX c #9DB6A0",
"tX c #670404",
"yX c #188092",
"uX c #89501E",
"iX c #0B708A",
"pX c #088FA7",
"aX c #41A6C1",
"sX c #2D392F",
"dX c #39964B",
"fX c #D6922C",
"gX c #F0D8A6",
"hX c #F3D701",
"jX c #9FEFF4",
"kX c #00A224",
"lX c #00AB2B",
"zX c #B0C3B2",
"xX c #D2871C",
"cX c #E4B169",
"vX c #B21E1E",
"bX c #ECDFC3",
"nX c #71D0DF",
"mX c #CDACAC",
"MX c #C1581B",
"NX c #79C086",
"BX c #745B42",
"VX c #2E8994",
"CX c #F2D82D",
"ZX c #576F5C",
"AX c #F0CD58",
"SX c #00A0C7",
"DX c #F1E187",
"FX c #B5C9B6",
"GX c #B4C1B5",
"HX c #0C3F15",
"JX c #734141",
"KX c #F0BA2E",
"LX c #EEA526",
"PX c #B36666",
"IX c #9E764E",
"UX c #CE9797",
/* pixels */
"B B B B B B B B {.{.{.{.{.y.y.y.y.y.y.y.y.y.{.{.B B B B B B ;Xm n.|.|.|.|.>X>X>XH.H.H.H.H.eXeXeXeXeXeXH.H.H.H.>X>X>X>X|.|.|.|.l D.wXwXwXwXwXG.G.].N.N.N.N.N.N.N.N.N.].].].].].G.G.G.wXG.G.G.G.IX>.O.O.O.O.O.O.O.:X:X:X:Xc.c.c.c.c.c.c.c.c.c.:X:X:XO.O.O.O.O.O.=X",
"F P g g g g U U U :.:.:.~ ~ ~ ~ ~ ~ ~ :.:.:.:.U U U g g g P ..S.r k.1X1X1X1XvXvXqXqXqXv.v.v.v.v.v.v.v.v.v.qXqXqXvXvX1X1X1Xk.8 l 4Xk w.w.o.o.o.o.e.e.e.J J J J J J J J J J e.e.e.o.o.o.w.w.w.4 a.^ a ' ' M M A T T p.p.kXkXkXlXlXlXlXlXkXkXp.p.T T A A M ' ' ; t.",
"m.j d d d Z Z j 1 1 1 N N N N f f N N N 1 1 j j j Z d d d 3 l.S.r  . .% > > - - b b b h n # # # # # n h h b b b - - > %  .X B.l V.E 5 5 5 < < 4 4 , , k k C C C C C C k k , , 4 4 < MXV 5 5 E &XK $ $ $ 7 y 0 ; e e a p p H H H ' H H p p a a e ; 0 y 7 7 $ x.t.",
"m.Z @ @ 3 3 x x d d Z j j 1 1 1 1 j 1 z.z.I I $Xx 3 3 @ @ ..l.S.r  .X X % % > > - - u u <X] ] ] ] ] ( h u u - > > > % % X 8 B.l V.E o o 6 6 5 5 < < 4 4 , , , , , , , 4 4 4 < < 5 MX,X] < o E &XK $ + + + $ 7 y y 0 ; e a p >.~.p p a a e e ; 0 y 7 $ $ + + x.t.",
"m.Z 3 @ 3 3 x x d d Z j j j j j z.3._.j._.` ` 6.$X3 3 3 @ ..l.S.r  .X X % % > > - - u - C.t t t t v mXh u - u 9Xh % % % X 8 B.l V.E o o 6 6 5 < < < < 4 4 , , , , , k 4 4 < , < MX,XG D.o o E &XK $ + + + $ 7 7  XZ.; e e p zXd.p a a e e ; ; 0 y 7 $ $ + + x.t.",
"m.Z @ @ 3 3 3 x x d d Z Z j j aX7.6.6.I q.` ` ` aX3 3 @ @ ..l.S.r  .X X % % % > > - - - C.t t %Xt t mXu - 9X*.*.<X% % X X 8 B.l V.E o o 6 6 5 C e.w.k 4 < 4 4 4 4 k o.4 < C w.MX,XG D.o o o E a.K $ + + + $ $ $ =.h.=.; e ; _ G ^ e a ^ e ; 0 y 7 7 $ + + + x.t.",
"m.j @ @ @ 3 3 x x x d d Z Z aX8.7._._.I 7X` ` q.z.3 3 @ @ ..l.S.r  .X X X % % % > > - > C.t t t t t mXu A.( 9Xr.A.% X X X 8 B.l V.E o o o 6 6 < J { W.e.w.k 4 < < w.W.4 C W.w.,XG D.o o o o E a.K $ + s + + $ $ -.rXh.^ 0 ; Z.! _ e >.h._ 0 y 7 7 $ $ + + s x.t.",
"m.j @ @ @ @ 3 3 x x d d d z.3.8.8.7._.j.I 7X7XI @ @ @ @ @ ..l.S.r  .X X X X % % > > - > C.t t t t v mX<X*.;.5.<Xh X X X X 8 B.l V.E o o o o 6 6 w.W.{ { s.{ J w.k J { o.W.W.,XG D.o o o o o E a.K 7 + s + + + $ $ L *X*X X0 a FXF.>.F.GX! >.y 7 $ + s + s s x.t.",
"m.j @ @ @ @ @ x x x d d j i.3.3.8.8.8.I z.aXI I I $X@ @ @ ..l.S.r  .8 8 X X % % % > > > C.t t t t v &.*.;.8 A.9X% X X 8 8 8 B.l V.E o o o o 6 6 4 W.{ { s.s.Y Y { s.s.{ s.^.G D.6 o o o o o E a.K y + s s K =.-.$ 7 XX! zXL ; XX_ F.>.h.GX9.=.$ -.=.XXs s s x.K ",
"m.1 @ @ @ 3 I j.j.j.$XZ z.i.i.3.3.3.aX8.7Xq.` = = 6.$X@ @ ..l.m r  .8 8 8 X X % % > > > C.v t v t &.( h 8 `.`.% X X X 8 8 8 B.l V.K.o o o o 6 5 5 o.{ s.s.Y Y Y Y Y Y s.cX&.D.5 6 6 o o o o E a.K y + s s =.! }.L 7 0 F.t rXa >.}.>.9.}.>.*XK L GX! =.s s s x.K ",
"m.1 @ @ @ I I I 6.= _.1 g.i.i.i.i.z._.= = = ` ` = = I @ @ ..l.m r  .8 8 % h ;.;.r.r.r.r.( v v ! L.A.u 8 `.C.r.;.;.;.- X 8 8 B.l V.K.o o o 6 5 5 5 k { Y Y #.#.#.#.#.Y !.^.Y.< 5 5 6 6 o o o K.a.K 0 + s s $ >.! FXK 7 L zX}._ }.>.9.}._ *X^ 0 rXt _ + + s s x.K ",
"F 1 3 @ $Xj.I ` = = q.g.g.g.i.i.g.i.` = ` = = = q.7Xj.@ @ ..iXm r  .X 8 r.] G G G G G G ! & ! ( ;.r.u r.&.G G G G G C.X X 8 tXl 4XK.o o 6 5 5 < < w.Y #.#.#.%.%.%.%.!.^.LX{ e.V 4 5 6 6 o o K.R ^ ; + + + + $ =.! h.=.;  XF.}._ 9.rX_ *XZ.y K 9.h.L + + + + x.K ",
"4.SX3 3 $Xj.j.= = = q.g.f 4.4.4.f 3.` 6.= = = = 6.7.7.3 3 @ iXm r  .X X 9X%X& & & & & & & ! ( ;.% - ;.( & & & & & q L.% X 8 tX[ 4XK.6 6 5 5 < 4 o.Y #.%.b.!.gXKXb.b.!.LX%.#.#.Y W.o.k 5 6 6 K.R ^ e $ + $ $ $ y =.! ! XX>.rX_ ! rX_ *XXX; ; >.v zX0 $ $ + + s K ",
"4.SXx x z.j.8.= = = q.4.f F 4.4.f [.q.3.= = = = 6.7._.x x 3 iXm r k.% X `.%X& & & & v & ! *.;.> > % A.G & v & & & : L.% % X tX[ 4X6 5 5 < < , J #.%.b.!.gX(.bX!.f.f.b.b.b.%.#.Y { J o.k 5 5 6 R Z.e 7 + -._ =.e 0 XX_ F.d._ 9.d.J.*X_ d.^  X*Xv zX; y 7 $ $ s ^ ",
"S SXd d z.8.8.w = w q.4.-X-XP P P nXq.[.= = w w 6.7.6.d d x ..m #Xk.% % `.%X& & & & : ! *.;.- - > A.G : & & & & & q L.> % % tX[ Y.5 5 < < C W.%.b.!.gX(.bXAXKX| | | | f.f.b.2 V C , 4 < < 5 E.R Z.a 7 $ L h.v *X=.p J.d.J.OXd.F.*X_ *Xv 0.*Xt v d.; 0 y 7 $ + ^ ",
"S F d Z g.8.7.w w w q.nX` X.;XS S '.0X[.= w = w 6.3.7.j Z d ..m #Xk.> > `.%X: : : : %X*.r - - - `.&.q : : : : : : * L.> > % 8 [ Y.5 < < k J s.!.gX(.&.6XxX| ) ) ) ) AXAX| | %.z k k , 4 < < E.R Z.p y 7 0 ^ FXt F.F.d.F.OX2X.X0.J.0.v v v v v & 2Xa ; 0 y 7 $ ^ ",
"g F Z j g.7.7.w ` 0X[.[.X.w X.W /.M.0X[.w w w w 6.f N 1 j Z 3 m #Xk.> > `.t * q q %X( # b b - n.&.q q q q q q q q * L.> > > 8 [ Y.E.< 4 , z 6X%X&.6Xc z 9 ) ) ) ) CX(.DX) | | 5XV C k , 4 < E.R ~.p 0 y 0 ;  X=.}.2XF.OX2X.X0.J.0.& v v v v v & FXp e ; 0 y $ ^ ",
"g F j 1 g.3.3.nX-XS S g /.W = O 0XB ;XB w = X.w M.f N 1 j j x m #Xk.- - n 8X*.*.,X( # b b b n.&.* q G ( ( ( ( *.*.*.9X- - > % [ Y.E.4 V 6X,X6XD.c z c c 5XhXhX) f.DX(.CX) ) ) | 5XV C , 4 4 $.R ~.H 0 0 ; e  X2XOXd.OX2X.X0..X0.& & & & & & & : d.p a e 0 0 7 Z.",
"g F 1 1 N -X7XM.-XS g U :.:.B jX= jX'.'.w 0X;XX.M.F f N 1 1 x m #Xk.- - u u u <X8X# b b b n.&.* q * ] # r n n h h u u u - - % [ Y.E.4 D.6Xc C V z c i i f.hXf.9 fX(.DXhX| 5Xf.| | 9 C k , , $.R ~.H ; ; e a p J.t : 0..Xh..X0.: & & & & & & & : J.p a e ; 0 y Z.",
"U F 1 N N nXO O X.'.U :.:.~ ~ ~ {.jXX.).w W /.X.M.F f N 1 1 pXm #Xk.- u u h PXC.# b b b A.&.* * * * ] u.# # r n n h h u - - % [ Y.E., k k C V z c c i 2 f.5X9 9 ^.(.CX) 9 i 2 9 %.f.9 k , , $.R ~.' ; ; e a p H J.v t 9..X9.q : : : : : : : : & dXp p a ; ; 0 Z.",
"U F 1 N f -X= O O w W ;X~ ~ Q Q Q Q {.).O W /.X.M.F f N N 1 pXm #Xk.- u u <X8X# b b b n.,X* * * * O ] u.# # # r n n h u u - % [ Y.E., k C V z z c i 2 2 9 9 9 ].(.^.) 5X2 2 i z z 2 9 z k , $.R ~.' ; ; a p H ' M .XOX=XdX9.q q q q q q q q q v dXH p a e ; 0 Z.",
"4.x 1 N f F [.= O O O X.).Q Q Q Q Q ~ ).O W /.X.M.P f f 1 ..yXm r.tX% u h 8XA.u - b n.Q.UX* O O O O ] u.u.# # r n n h u - 5.5.l 4X+XK.k C V z z c i 2 2 9 9 xXgXbXfX9 9 2 2 i c z V V V , +X,.R ~.0 + ; a p H ' M A =Xp.T =Xv * q q q q q q q : J.H p a e + s ~.",
"m yX3 Z f F P [.'.M.w O w jX{.Q Q Q ~ ).O W /.W /.P F Z iXiXS.+.<.@.5.5.u # 8XA.h n.Q.u.L.O O * O O ] u.u.# # r n n h 2.5.} l   U.a.+X,.$.V z z c i 2 2 9 9 ].& cX9 9 9 2 2 i c z z V 1.+X+XBXU.I.L -.s 0 p H ' M M A T T p.NX: * * * * * * * * 2X' p ; s HXR.sX",
"  +.m pXpXf P S S U 0X= w O X.).Q Q ~ ).O W U g S F pXyX3XP.      <.l } 5.2.# 8XQ.Q.u.# L.O O O O O ] u.# # # r n h 5.} l @X        U.uX+X1.V z c i 2 2 9 9 ^.bXfX9 9 9 2 2 i c z C ,.+XR BX        R.-.HX7 a ' M M A T T p.p.NX& O * * * O : d.A p 7 s L R.+.  ",
"      P.VX1 f S g g /.;XW O O w jXQ :.).w '.g S f pXyXm +.            <.@.} 5.r.<X# # # ( q * * * O ] u.# # r n 2.5.@.[               <.&X,.,.$.c i i 2 2 xX^.fX9 9 9 2 2 i i z $.,.uX&XI.              t.-.$ e ' M A A T T p.p.=X9.* O O OX=XM a $ -.t.sX      ",
"        +.m oXf P g U U B O O O O X.B B '.g S N oX3XI.                    @X@.} 2.n # # n.PXQ.Q.Q.Q.A.# # r h } @.[ <.                    U.uX,.1.z i i i cXcX2 2 2 2 2 i i V 1.T.a.U.                    I.L -.y H M A A A T T T p.0.O 0.dXH 0 7 L R.<.        ",
"            P.VXN F S U /.M.W W W W '.U g P f oXm                             l @.2.h r # r # # # r # # n 2.} @.@X                          <.&XT.1.$.c xX^.xX2 2 2 i i z $.,.T.BX                            R.L y e M A A A A A A =XNXA a 7 L t.sX            ",
"                P.oXf P g g g g g g g S f g.3X+.                                @XJX} 2.n # # # # # r h } @.[                                   U.uX,.1.c fXc i i i c C 1.T.R <.                                sXL -.y p M A M A M M H 0 -.XXZX                ",
"                  +.3Xg.f P S S S S P f oXP.                                      <.l @.} h n r r n 2.} @.@X                                        [ T.,.$.z c c V 1.1.4X[                                         R.L -.0 H M M ' e y  XZXR.                  ",
"                      P.yXf f P P f oXm +.                                            @X@.} 2.h 2.2.@.l                                               U.R T.1.$.$.1.T.&XI.                                            I.L -.7 e a 0 e ^ ZX                      ",
"                          3XoX1 N 3XP.                                                    @X@.5.} JX<.                                                    U.uX,.T.IX[                                                     I.L 7 y  XR.+.                        ",
"                            P.VXm                                                             l l                                                           <.a.R I.                                                          t.XXsX                            "
};
